<?xml version="1.0" encoding="UTF-8" standalone="no"?>
<svg width="189px" height="85px" viewBox="0 0 189 85" version="1.1" xmlns="http://www.w3.org/2000/svg" xmlns:xlink="http://www.w3.org/1999/xlink" xmlns:sketch="http://www.bohemiancoding.com/sketch/ns">
    <!-- Generator: Sketch 3.2.2 (9983) - http://www.bohemiancoding.com/sketch -->
    <title>dgrid</title>
    <desc>Created with Sketch.</desc>
    <defs></defs>
    <g id="Page-1" stroke="none" stroke-width="1" fill="none" fill-rule="evenodd" sketch:type="MSPage">
        <g id="Artboard-1" sketch:type="MSArtboardGroup" transform="translate(-625.000000, -220.000000)" fill="#009CE2">
            <g id="dgrid" sketch:type="MSLayerGroup" transform="translate(625.000000, 220.000000)">
                <g id="dgrid-logo" transform="translate(87.000000, 0.000000)" sketch:type="MSShapeGroup">
                    <path d="M0,0 L102,0 L102,11 L0,11 L0,0 L0,0 Z" id="Shape"></path>
                    <path d="M0,24 L102,24 L102,35 L0,35 L0,24 L0,24 Z" id="Shape"></path>
                    <path d="M0,49 L102,49 L102,60 L0,60 L0,49 L0,49 Z" id="Shape"></path>
                    <path d="M0,73 L102,73 L102,84 L0,84 L0,73 L0,73 Z" id="Shape"></path>
                </g>
                <path d="M60.6660959,50.5277778 C60.6660959,64.3402778 49.7243151,74.9652778 35.5,74.9652778 C21.3972603,74.9652778 10.4554795,64.3402778 10.4554795,50.5277778 C10.4554795,36.7152778 21.3972603,26.0902778 35.5,26.0902778 C41.7003425,26.0902778 47.7791096,28.5694444 52.7636986,32.8194444 L58.1130137,24.0833333 C51.5479452,19.0069444 43.5239726,16.0555556 35.5,16.0555556 C15.9263699,16.0555556 0,31.5208333 0,50.5277778 C0,69.4166667 15.9263699,85 35.5,85 C44.9828767,85 54.3441781,80.6319444 60.6660959,74.4930556 L60.6660959,82.6388889 L71,82.6388889 L71,0 L60.6660959,0 L60.6660959,50.5277778 Z" id="d" sketch:type="MSShapeGroup"></path>
            </g>
        </g>
    </g>
</svg>