<?xml version="1.0" encoding="UTF-8" standalone="no"?>
<svg width="119px" height="92px" viewBox="0 0 119 92" version="1.1" xmlns="http://www.w3.org/2000/svg" xmlns:xlink="http://www.w3.org/1999/xlink" xmlns:sketch="http://www.bohemiancoding.com/sketch/ns">
    <!-- Generator: Sketch 3.2.2 (9983) - http://www.bohemiancoding.com/sketch -->
    <title>dstore</title>
    <desc>Created with Sketch.</desc>
    <defs></defs>
    <g id="Page-1" stroke="none" stroke-width="1" fill="none" fill-rule="evenodd" sketch:type="MSPage">
        <g id="Artboard-1" sketch:type="MSArtboardGroup" transform="translate(-465.000000, -219.000000)">
            <g id="dstore" sketch:type="MSLayerGroup" transform="translate(465.000000, 219.000000)">
                <g id="Group-3-+-Group-5" transform="translate(0.000000, 37.000000)" sketch:type="MSShapeGroup">
                    <g id="Group-4">
                        <path d="M64.5785659,19.5407437 C63.1544633,19.1362051 62,17.999372 62,17.0005891 L62,1.21605418 C62,0.217704091 63.1644259,-0.259950371 64.5785659,0.142844876 L117.079098,15.0967855 C118.139983,15.3989618 119,16.5386878 119,17.6424601 L119,35 L64.5785659,19.5407437 Z" id="Imported-Layers-7" fill="#1C4D71"></path>
                        <g id="Imported-Layers-5-+-Imported-Layers-11" transform="translate(62.000000, 16.000000)">
                            <path d="M-0.00802795526,38.5755142 L55.0463926,25.9224451 C56.1209064,25.6754913 56.991972,24.5821298 56.991972,23.4700924 L56.991972,1.09044821 C56.991972,-0.0169950007 56.1194474,-0.714406291 55.0463926,-0.468011823 L-0.00802795526,12.1735649 L-0.00802795526,38.5755142 Z" id="Imported-Layers-5" fill="#316A9D"></path>
                            <path d="M-0.00788711394,39.142087 L54.0482036,26.3108832 C55.1217951,26.0560466 55.9921129,24.9585203 55.9921129,23.8586614 L55.9921129,1.06260884 C55.9921129,-0.036879246 55.1124866,-0.719584675 54.0482036,-0.467187055 L-0.00788711394,12.3523626 L-0.00788711394,39.142087 Z" id="Imported-Layers-6"></path>
                        </g>
                        <path d="M54.4214341,18.9824367 C55.8455367,18.5894564 57,17.4851042 57,16.514858 L57,1.18130977 C57,0.211483974 55.8355741,-0.252523218 54.4214341,0.138763593 L1.93688765,14.6610258 C0.86717414,14.9570112 0,16.0912151 0,17.1914086 L0,34 L54.4214341,18.9824367 Z" id="Imported-Layers-8" fill="#1C4D71"></path>
                        <g id="Imported-Layers-5-+-Imported-Layers-12" transform="translate(29.000000, 34.500000) scale(-1, 1) translate(-29.000000, -34.500000) translate(1.000000, 16.000000)">
                            <path d="M-0.00802795526,38.5755142 L55.0463926,25.9224451 C56.1209064,25.6754913 56.991972,24.5821298 56.991972,23.4700924 L56.991972,1.09044821 C56.991972,-0.0169950007 56.1194474,-0.714406291 55.0463926,-0.468011823 L-0.00802795526,12.1735649 L-0.00802795526,38.5755142 Z" id="Imported-Layers-5" fill="#316A9D"></path>
                            <path d="M-0.00802795526,38.2012483 L55.0463926,25.6709413 C56.1209064,25.4263835 56.991972,24.3285384 56.991972,23.2208325 L56.991972,1.1014177 C56.991972,-0.00718221062 56.1194474,-0.707475005 55.0463926,-0.463471096 L-0.00802795526,12.055455 L-0.00802795526,38.2012483 Z" id="Imported-Layers-6" fill="#2B6B9A"></path>
                        </g>
                    </g>
                </g>
                <g id="Group-3-+-Group-4" sketch:type="MSShapeGroup">
                    <g id="Group-4">
                        <path d="M63.5785659,18.9824367 C62.1544633,18.5894564 61,17.4851042 61,16.514858 L61,1.18130977 C61,0.211483974 62.1644259,-0.252523218 63.5785659,0.138763593 L116.063112,14.6610258 C117.132826,14.9570112 118,16.0912151 118,17.1914086 L118,34 L63.5785659,18.9824367 Z" id="Imported-Layers-7" fill="#2B97C2"></path>
                        <g id="Imported-Layers-5-+-Imported-Layers-11" transform="translate(62.000000, 16.000000)" fill="#31B8EE">
                            <path d="M-0.00788711394,38.1384437 L54.0482036,25.6362452 C55.1217951,25.3879428 55.9921129,24.2885412 55.9921129,23.1826564 L55.9921129,1.09960692 C55.9921129,-0.00717040275 55.1124866,-0.701133786 54.0482036,-0.4552079 L-0.00788711394,12.0356353 L-0.00788711394,38.1384437 Z" id="Imported-Layers-6"></path>
                        </g>
                        <path d="M54.4214341,18.9824367 C55.8455367,18.5894564 57,17.4851042 57,16.514858 L57,1.18130977 C57,0.211483974 55.8355741,-0.252523218 54.4214341,0.138763593 L1.93688765,14.6610258 C0.86717414,14.9570112 0,16.0912151 0,17.1914086 L0,34 L54.4214341,18.9824367 Z" id="Imported-Layers-8" fill="#2B97C2"></path>
                        <g id="Imported-Layers-5-+-Imported-Layers-12" transform="translate(29.000000, 35.500000) scale(-1, 1) translate(-29.000000, -35.500000) translate(1.000000, 16.000000)">
                            <path d="M-0.00802795526,37.5863985 L55.0463926,25.257767 C56.1209064,25.0171454 56.991972,23.9220071 56.991972,22.8257933 L56.991972,1.10498985 C56.991972,0.00246949285 56.1194474,-0.696088181 55.0463926,-0.45601152 L-0.00802795526,11.8614222 L-0.00802795526,37.5863985 Z" id="Imported-Layers-5" fill="#316A9D"></path>
                            <path d="M-0.00802795526,37.5863985 L55.0463926,25.257767 C56.1209064,25.0171454 56.991972,23.9220071 56.991972,22.8257933 L56.991972,1.10498985 C56.991972,0.00246949285 56.1194474,-0.696088181 55.0463926,-0.45601152 L-0.00802795526,11.8614222 L-0.00802795526,37.5863985 Z" id="Imported-Layers-6" fill="#31B8EE"></path>
                        </g>
                    </g>
                </g>
            </g>
        </g>
    </g>
</svg>