<?xml version="1.0" encoding="UTF-8" standalone="no"?>
<svg width="110px" height="110px" viewBox="0 0 110 110" version="1.1" xmlns="http://www.w3.org/2000/svg" xmlns:xlink="http://www.w3.org/1999/xlink" xmlns:sketch="http://www.bohemiancoding.com/sketch/ns">
    <!-- Generator: Sketch 3.2.2 (9983) - http://www.bohemiancoding.com/sketch -->
    <title>intern</title>
    <desc>Created with Sketch.</desc>
    <defs></defs>
    <g id="Page-1" stroke="none" stroke-width="1" fill="none" fill-rule="evenodd" sketch:type="MSPage">
        <g id="Artboard-1" sketch:type="MSArtboardGroup" transform="translate(-270.000000, -212.000000)" fill="#318565">
            <g id="intern" sketch:type="MSLayerGroup" transform="translate(270.000000, 212.000000)">
                <path d="M69.6240089,67.4750908 L68.2461322,66.5541742 C56.7164959,60.8072823 46.4403526,66.5541742 46.4403526,66.5541742 L45,67.9215958 L45,70.5150459 L46.4403526,70.0294717 C46.4403526,70.0294717 56.7164959,64.2825798 68.2461322,70.0294717 L70,71 L69.6240089,67.4750908" id="Fill-1" sketch:type="MSShapeGroup"></path>
                <path d="M26.5,76 C31.7467051,76 36,71.7467051 36,66.5 C36,61.2532949 31.7467051,57 26.5,57 C21.2532949,57 17,61.2532949 17,66.5 C17,71.7467051 21.2532949,76 26.5,76 Z" id="Oval-4" sketch:type="MSShapeGroup"></path>
                <circle id="Oval-5" sketch:type="MSShapeGroup" cx="86.5" cy="67.5" r="9.5"></circle>
                <path id="Fill-3" sketch:type="MSShapeGroup"></path>
                <path d="M93.4062067,83.4808633 C93.4062067,83.4808633 107.057527,104.079342 54.4547929,110 L41,107.869547 C41,107.869547 83.4714022,97.8506599 75.0907463,82 L93.4062067,83.4808633 Z" id="Fill-8" sketch:type="MSShapeGroup"></path>
                <path d="M26.4994335,46 C15.7294239,46 7,54.7301172 7,65.4997167 C7,76.2698828 15.7294239,85 26.4994335,85 C37.2694431,85 46,76.2698828 46,65.4997167 C46,54.7301172 37.2694431,46 26.4994335,46 L26.4994335,46 Z M26.4997144,82 C17.9391477,82 11,75.0608523 11,66.5002856 C11,57.94029 17.9391477,51 26.4997144,51 C35.0614234,51 42,57.94029 42,66.5002856 C42,75.0608523 35.0614234,82 26.4997144,82 L26.4997144,82 Z" id="Fill-5" sketch:type="MSShapeGroup"></path>
                <path d="M86.5,47 C75.7311234,47 67,55.7299904 67,66.5 C67,77.2688766 75.7311234,86 86.5,86 C97.2700096,86 106,77.2688766 106,66.5 C106,55.7299904 97.2700096,47 86.5,47 L86.5,47 Z M86.5002856,83 C77.9391477,83 71,76.0608523 71,67.4997144 C71,58.9391477 77.9391477,52 86.5002856,52 C95.0614234,52 102,58.9391477 102,67.4997144 C102,76.0608523 95.0614234,83 86.5002856,83 L86.5002856,83 Z" id="Fill-6" sketch:type="MSShapeGroup"></path>
                <path d="M77.6387705,50.1821125 C80.5120074,48.5272341 83.8415752,47.5769697 87.3973195,47.5769697 C92.459581,47.5769697 97.0734676,49.4967875 100.547379,52.6465594 C100.691155,52.68457 100.833794,52.7214459 100.961657,52.7622931 C100.961657,52.7622931 125.324501,15.4098102 94.0524772,30.336053 C94.0524772,30.336053 59.1116208,-17.915821 23.3285695,7.28916251 C23.3285695,7.28916251 28.8034042,10.2329966 30.7446576,12.9147278 C30.7446576,12.9147278 4.36554703,14.41416 0,27.3967575 C0,27.3967575 7.70250253,26.5849197 7.5922557,28.5064394 C7.5922557,28.5064394 -2.53169904,29.9860153 9.97108672,56 C13.4728442,50.7187991 19.472772,47.2348745 26.2904585,47.2348745 C32.2085536,47.2348745 37.5083573,49.8621429 41.0953571,54.0064304 C45.9501955,53.1509087 51.8160086,51.4171726 55.6337312,47.8906988 C55.6337312,47.8906988 84.4172455,41.6824937 77.6387705,50.1821125" id="Fill-4" sketch:type="MSShapeGroup"></path>
            </g>
        </g>
    </g>
</svg>