<?xml version="1.0" encoding="UTF-8" standalone="no"?>
<svg width="781px" height="53px" viewBox="0 0 781 53" version="1.1" xmlns="http://www.w3.org/2000/svg" xmlns:xlink="http://www.w3.org/1999/xlink" xmlns:sketch="http://www.bohemiancoding.com/sketch/ns">
    <!-- Generator: Sketch 3.2.2 (9983) - http://www.bohemiancoding.com/sketch -->
    <title>trustedBySprite</title>
    <desc>Created with Sketch.</desc>
    <defs></defs>
    <g id="Page-1" stroke="none" stroke-width="1" fill="none" fill-rule="evenodd" sketch:type="MSPage">
        <g id="Artboard-1" sketch:type="MSArtboardGroup" transform="translate(-252.000000, -281.000000)" fill="#FFFFFF">
            <g id="trustedBySprite" sketch:type="MSLayerGroup" transform="translate(242.000000, 275.000000)">
                <g id="Layer_1" transform="translate(10.000000, 6.000000)" sketch:type="MSShapeGroup">
                    <g id="Group" transform="translate(20.000000, 0.000000)">
                        <path d="M14.6,18.5 L14.6,20 L14.7,20 C15,20.1 15.4,20.1 15.7,20.1 L16.6,20.1 C16.9,20.1 17.2,20 17.5,19.9 C17.8,19.8 18.1,19.6 18.4,19.4 C18.6,19.2 18.8,18.9 18.9,18.7 C19.1,18.2 19.1,17.7 18.9,17.2 C18.8,17 18.6,16.7 18.4,16.6 C18.2,16.4 18,16.3 17.7,16.2 L16.6,15.8 C16.5,15.7 16.4,15.6 16.3,15.5 L16.3,15.2 C16.3,15.2 16.3,15.1 16.4,15.1 L16.5,15 L16.6,15 C16.7,14.9 16.9,14.9 17,14.9 L17.7,14.9 C18,14.9 18.3,15 18.5,15 L18.6,15 L18.6,13.6 L18.5,13.6 C18.2,13.5 17.9,13.5 17.7,13.5 C17.3,13.5 17,13.4 16.6,13.5 C16.1,13.5 15.7,13.7 15.3,14 C15.1,14.2 14.9,14.5 14.8,14.7 C14.6,15.1 14.6,15.6 14.8,16.1 C14.9,16.3 15,16.5 15.2,16.7 C15.4,16.8 15.5,17 15.7,17.1 C15.9,17.2 16.2,17.3 16.5,17.4 C16.6,17.4 16.7,17.5 16.8,17.5 L16.9,17.5 L16.9,17.5 C17,17.5 17.1,17.6 17.2,17.7 C17.3,17.8 17.3,17.8 17.4,17.9 L17.4,18.1 C17.4,18.2 17.3,18.3 17.1,18.4 C17,18.5 16.8,18.5 16.7,18.5 L16,18.5 C15.7,18.5 15.4,18.4 15.1,18.4 C15,18.6 14.8,18.5 14.6,18.5 L14.6,18.5" id="Shape"></path>
                        <path d="M8.6,19.9 L8.6,18.2 C8.2,18.4 7.8,18.5 7.4,18.5 C7,18.5 6.5,18.4 6.2,18.1 C5.9,17.9 5.8,17.6 5.7,17.3 C5.6,17 5.6,16.6 5.7,16.3 C5.8,16 6,15.6 6.3,15.4 C6.5,15.2 6.8,15.1 7.2,15 C7.8,14.9 8.3,15 8.8,15.3 L8.8,15.3 L8.8,13.6 L8.7,13.6 C8.2,13.4 7.7,13.4 7.1,13.4 C6.6,13.4 6.1,13.5 5.7,13.7 C5.3,13.9 4.9,14.2 4.6,14.6 C3.6,15.8 3.6,17.5 4.5,18.8 C5,19.4 5.6,19.8 6.3,20 C7.1,20.2 7.9,20.2 8.6,19.9 L8.6,19.9" id="Shape"></path>
                        <path d="M12.4,20 L12.4,13.6 L10.8,13.6 L10.8,20 L12.4,20" id="Shape"></path>
                        <path d="M36.4,19.3 L36.4,19.2 L35.8,19.2 L35.8,19.3 L36,19.3 L36,20 L36.2,20 L36.2,19.3 L36.4,19.3" id="Shape"></path>
                        <path d="M36.5,20 L36.6,20 L36.6,19.4 L36.9,20 L37,20 L37.3,19.3 L37.3,20 L37.4,20 L37.4,19.2 L37.2,19.2 L36.9,19.9 L36.7,19.2 L36.5,19.2 L36.5,20" id="Shape"></path>
                        <path d="M0.3,8.4 C0.3,8.6 0.4,8.8 0.6,8.9 C0.7,9 0.9,9.1 1.1,9.1 C1.3,9.1 1.5,9 1.6,8.9 C1.7,8.8 1.8,8.6 1.9,8.4 L1.9,6.6 C1.9,6.4 1.8,6.2 1.7,6.1 C1.6,6 1.4,5.9 1.1,5.9 C0.9,5.9 0.7,6 0.5,6.1 C0.4,6.2 0.3,6.4 0.3,6.6 L0.3,8.4" id="Shape"></path>
                        <path d="M4.8,8.4 C4.8,8.6 4.9,8.8 5.1,8.9 C5.2,9 5.4,9.1 5.6,9.1 C5.8,9.1 6,9 6.1,8.9 C6.2,8.8 6.3,8.6 6.4,8.4 L6.4,4.4 C6.4,4.2 6.3,4 6.2,3.9 C6.1,3.8 5.9,3.7 5.6,3.7 C5.4,3.7 5.2,3.8 5,3.9 C4.9,4 4.8,4.2 4.8,4.4 L4.8,8.4" id="Shape"></path>
                        <path d="M9.2,10 C9.2,10.2 9.3,10.4 9.5,10.5 C9.6,10.6 9.8,10.7 10,10.7 C10.2,10.7 10.4,10.6 10.5,10.5 C10.6,10.4 10.7,10.2 10.8,10 L10.8,1.4 C10.8,1.2 10.7,1 10.6,0.9 C10.5,0.8 10.3,0.7 10,0.7 C9.8,0.7 9.6,0.8 9.4,0.9 C9.3,1 9.2,1.2 9.2,1.4 L9.2,10" id="Shape"></path>
                        <path d="M13.6,8.4 C13.6,8.6 13.7,8.8 13.9,8.9 C14,9 14.2,9.1 14.4,9.1 C14.6,9.1 14.8,9 14.9,8.9 C15,8.8 15.1,8.6 15.2,8.4 L15.2,4.4 C15.2,4.2 15.1,4 15,3.9 C14.9,3.8 14.7,3.7 14.4,3.7 C14.2,3.7 14,3.8 13.8,3.9 C13.7,4 13.6,4.2 13.6,4.4 L13.6,8.4" id="Shape"></path>
                        <path d="M18,8.4 C18,8.6 18.1,8.8 18.3,8.9 C18.4,9 18.6,9.1 18.8,9.1 C19,9.1 19.2,9 19.3,8.9 C19.4,8.8 19.5,8.6 19.6,8.4 L19.6,6.6 C19.6,6.4 19.5,6.2 19.4,6.1 C19.3,6 19.1,5.9 18.8,5.9 C18.6,5.9 18.4,6 18.2,6.1 C18.1,6.2 18,6.4 18,6.6 L18,8.4" id="Shape"></path>
                        <path d="M22.5,8.4 C22.5,8.6 22.6,8.8 22.8,8.9 C22.9,9 23.1,9.1 23.3,9.1 C23.5,9.1 23.7,9 23.8,8.9 C23.9,8.8 24,8.6 24.1,8.4 L24.1,4.4 C24.1,4.2 24,4 23.9,3.9 C23.8,3.8 23.6,3.7 23.3,3.7 C23.1,3.7 22.9,3.8 22.7,3.9 C22.6,4 22.5,4.2 22.5,4.4 L22.5,8.4" id="Shape"></path>
                        <path d="M26.9,10 C26.9,10.2 27,10.4 27.2,10.5 C27.3,10.6 27.5,10.7 27.7,10.7 C27.9,10.7 28.1,10.6 28.2,10.5 C28.3,10.4 28.4,10.2 28.5,10 L28.5,1.4 C28.5,1.2 28.4,1 28.3,0.9 C28.2,0.8 28,0.7 27.7,0.7 C27.5,0.7 27.3,0.8 27.1,0.9 C27,1 26.9,1.2 26.9,1.4 L26.9,10" id="Shape"></path>
                        <path d="M31.3,8.4 C31.3,8.6 31.4,8.8 31.6,8.9 C31.7,9 31.9,9.1 32.1,9.1 C32.3,9.1 32.5,9 32.6,8.9 C32.7,8.8 32.8,8.6 32.9,8.4 L32.9,4.4 C32.9,4.2 32.8,4 32.7,3.9 C32.6,3.8 32.4,3.7 32.1,3.7 C31.9,3.7 31.7,3.8 31.5,3.9 C31.4,4 31.3,4.2 31.3,4.4 L31.3,8.4" id="Shape"></path>
                        <path d="M35.8,8.4 C35.8,8.6 35.9,8.8 36.1,8.9 C36.2,9 36.4,9.1 36.6,9.1 C36.8,9.1 37,9 37.1,8.9 C37.2,8.8 37.3,8.6 37.4,8.4 L37.4,6.6 C37.4,6.4 37.3,6.2 37.2,6.1 C37.1,6 36.9,5.9 36.6,5.9 C36.4,5.9 36.2,6 36,6.1 C35.9,6.2 35.8,6.4 35.8,6.6 L35.8,8.4" id="Shape"></path>
                        <path d="M25.5,19.9 L25.5,18.2 C25.1,18.4 24.7,18.5 24.3,18.5 C23.9,18.5 23.4,18.4 23.1,18.1 C22.8,17.9 22.7,17.6 22.6,17.3 C22.5,17 22.5,16.6 22.6,16.3 C22.7,16 22.9,15.6 23.2,15.4 C23.4,15.2 23.7,15.1 24.1,15 C24.7,14.9 25.2,15 25.7,15.3 L25.7,15.3 L25.7,13.6 L25.6,13.6 C25.1,13.4 24.6,13.4 24,13.4 C23.5,13.4 23,13.5 22.6,13.7 C22.2,13.9 21.8,14.2 21.5,14.6 C20.5,15.8 20.5,17.5 21.4,18.8 C21.9,19.4 22.5,19.8 23.2,20 C24,20.2 24.8,20.2 25.5,19.9 L25.5,19.9" id="Shape"></path>
                        <path d="M27.2,16.8 C27.2,17.8 27.7,18.8 28.5,19.4 C29.3,20 30.3,20.3 31.3,20 C32.6,19.7 33.7,18.7 33.9,17.3 C34.1,15.9 33.5,14.6 32.3,13.9 C31.3,13.3 30,13.2 28.9,13.8 C27.9,14.5 27.3,15.6 27.2,16.8 M29.6,15.5 C30,15.2 30.4,15.1 30.8,15.1 C31.2,15.1 31.7,15.4 31.9,15.7 C32.2,16.1 32.3,16.5 32.3,16.9 C32.3,17.3 32,17.8 31.7,18 C31.3,18.3 30.9,18.4 30.5,18.4 C30.1,18.4 29.6,18.1 29.4,17.8 C29.1,17.4 29,17 29,16.6 C29,16.2 29.2,15.8 29.6,15.5" id="Shape"></path>
                    </g>
                    <g id="Group" transform="translate(104.000000, 1.000000)">
                        <path d="M13,4.3 L9.4,4.3 L9.4,12.7 L13,9.1 L13,4.3 L13,4.3 Z" id="Shape"></path>
                        <path d="M4.6,8.8817842e-16 L4.6,3.6 L13,3.6 L9.4,8.8817842e-16 L4.6,8.8817842e-16 L4.6,8.8817842e-16 Z" id="Shape"></path>
                        <path d="M8.7,12.7 L8.7,9.1 L0.3,9.1 L3.9,12.7 L8.7,12.7 L8.7,12.7 Z" id="Shape"></path>
                        <path d="M0.3,8.4 L3.9,8.4 L3.9,-8.8817842e-16 L0.3,3.6 L0.3,8.4 L0.3,8.4 Z" id="Shape"></path>
                        <path d="M25.2,11.4 C25.2,11.9 24.9,12.6 23.7,12.6 L22.2,12.6 L22.2,10.4 L23.7,10.4 C24.9,10.3 25.2,10.9 25.2,11.4 L25.2,11.4 L25.2,11.4 Z M23.5,9.1 L20,9.1 L20,16.3 L22.1,16.3 L22.1,13.7 L23.9,13.7 C26,13.7 27.2,12.7 27.2,11.3 C27.3,9.9 26.2,9.1 23.5,9.1 L23.5,9.1 L23.5,9.1 Z" id="Shape"></path>
                        <path d="M72.4,10.6 C71.6,10.6 70.8,10.9 70.4,11.3 L70.4,11.3 L70.4,10.7 L68.6,10.7 L68.6,16.3 L70.4,16.3 L70.4,12.5 C70.8,12 71.4,11.8 71.9,11.8 C73.2,11.8 73.2,12.6 73.2,13.7 L73.2,16.3 L75,16.3 L75,13.1 C74.9,11.9 74.6,10.6 72.4,10.6 L72.4,10.6 L72.4,10.6 Z" id="Shape"></path>
                        <path d="M33.8,14.2 L32,9.1 L28.6,9.1 L28.6,16.3 L30.6,16.3 L30.6,10.6 L30.8,10.6 L32.9,16.3 L34.8,16.3 L36.9,10.6 L37,10.6 L37,16.3 L39,16.3 L39,9.1 L35.7,9.1 L33.8,14.2 L33.8,14.2 Z" id="Shape"></path>
                        <path d="M45.6,13.5 C45.6,14.6 45,15.3 43.9,15.3 C42.7,15.3 42.2,14.6 42.2,13.5 C42.2,12.4 42.8,11.7 43.9,11.7 C45,11.7 45.6,12.4 45.6,13.5 L45.6,13.5 L45.6,13.5 Z M47.5,13.5 C47.5,11.5 45.9,10.5 43.9,10.5 C41.9,10.5 40.3,11.5 40.3,13.5 C40.3,15.5 41.9,16.5 43.9,16.5 C45.9,16.5 47.5,15.5 47.5,13.5 L47.5,13.5 L47.5,13.5 Z" id="Shape"></path>
                        <path d="M58.2,10.7 L58.2,11.2 C57.8,10.8 57.2,10.5 56.2,10.5 C54.1,10.5 53.2,12 53.2,13.4 C53.2,15 54.1,16.2 56,16.3 C57,16.3 57.7,15.9 58.1,15.6 L58.1,15.6 L58.1,15.8 C58.1,16.7 57.8,17.5 56,17.5 C55.3,17.5 54.5,17.4 53.8,17 L53.8,18.3 C54.5,18.5 55.3,18.6 56.3,18.6 C59.2,18.6 59.9,17 59.9,15.5 L59.9,10.6 L58.2,10.6 L58.2,10.7 L58.2,10.7 Z M56.6,15.2 C55.6,15.2 55.1,14.4 55.1,13.5 C55.1,12.7 55.5,11.7 56.7,11.7 C57.7,11.7 58.2,12.5 58.2,13.4 C58.2,14.3 57.7,15.2 56.6,15.2 L56.6,15.2 L56.6,15.2 Z" id="Shape"></path>
                        <path d="M67.2,12.8 C67.2,11.4 66.3,10.6 64.3,10.6 C63.6,10.6 62.7,10.7 61.8,10.9 L61.8,12 C62.4,11.8 63.2,11.6 63.9,11.6 C64.8,11.6 65.5,11.7 65.5,12.8 L64.6,12.8 C63.9,12.8 62.8,12.9 62.3,13.1 C61.7,13.3 61,13.8 61,14.6 C61,15.9 62.1,16.4 63.4,16.4 C64.4,16.4 65,16.2 65.5,15.7 L65.5,15.7 L65.5,16.3 L67.1,16.3 L67.1,12.8 L67.2,12.8 L67.2,12.8 Z M65.4,14.8 C64.8,15.2 64.3,15.4 63.7,15.4 C63.1,15.4 62.7,15.2 62.7,14.6 C62.7,13.9 63.7,13.8 64.8,13.8 L65.4,13.8 L65.4,14.8 L65.4,14.8 Z" id="Shape"></path>
                        <path d="M16.1,9.1 L16.1,13.5 C16.1,14.5 15.6,15.1 14.6,15.1 C14.3,15.1 13.6,15.1 13,15 L13,16.4 C13.6,16.5 14.3,16.5 15,16.5 C17,16.5 18.3,15.4 18.3,13.8 L18.3,9.2 L16.1,9.2 L16.1,9.1 L16.1,9.1 Z" id="Shape"></path>
                        <path d="M52.2,10.6 C51.4,10.6 50.7,10.8 50.3,11.6 L50.3,11.6 L50.3,10.8 L48.6,10.8 L48.6,16.4 L50.4,16.4 L50.4,13.7 C50.4,13.1 50.5,12.8 50.6,12.6 C50.8,12.3 51.1,12.1 51.5,12 C51.7,12 52.1,12 52.4,12.1 L53.2,10.9 C52.9,10.7 52.6,10.6 52.2,10.6 L52.2,10.6 L52.2,10.6 Z" id="Shape"></path>
                    </g>
                    <g id="Group" transform="translate(597.000000, 2.000000)">
                        <path d="M19.4,7.7 C19.4,7.1 19.4,6.6 18.5,6.5 C18.2,6.5 18,6.5 18,6.3 C18,6.1 18.2,6.1 18.3,6.1 L18.7,6.1 L21.5,6.1 L21.7,6.1 L24.6,6.1 L25.1,6.1 C25.3,6.1 25.3,6.2 25.3,6.4 L25.3,8 C25.3,8 25.3,8.2 25.1,8.2 C25,8.2 24.9,8 24.8,8 C24.5,7.1 24.2,6.6 21.8,6.6 C21.3,6.6 21.1,6.6 21.1,7.3 L21.1,9.3 C21.1,10.2 21.1,10.2 21.3,10.2 L22.3,10.2 C23.6,10.2 23.8,9.9 24,9.1 C24.1,9 24.1,8.9 24.3,8.9 C24.4,8.9 24.5,9 24.5,9.1 C24.5,9.3 24.4,10.4 24.4,10.6 C24.4,10.7 24.4,11 24.5,11.3 L24.5,12 C24.5,12.1 24.5,12.2 24.3,12.2 C24.2,12.2 24.1,12.1 24.1,12 C24.1,11.9 24,11.5 23.9,11.5 C23.7,10.6 22.7,10.6 22.3,10.6 C21.1,10.6 21.1,10.6 21.1,11.3 L21.1,13.9 C21.1,14.5 21.1,15 21.8,15 C22.2,15 22.4,15.1 22.4,15.3 C22.4,15.5 22.2,15.5 22.1,15.5 C21.6,15.5 20.7,15.4 20.2,15.4 C19.7,15.4 18.8,15.5 18.3,15.5 C18.2,15.5 18,15.5 18,15.3 C18,15.1 18.2,15 18.5,15 C19.4,15 19.4,14.6 19.4,13.9 L19.4,7.7 L19.4,7.7 Z" id="Shape"></path>
                        <path d="M29,13.6 C29,14.6 28.5,15 27.8,15 C27.5,15 27.2,14.8 27.2,14.1 C27.2,13.8 27.2,13.4 28.1,12.9 C28.3,12.8 28.7,12.6 28.8,12.6 C28.9,12.6 29,12.6 29,12.7 L29,13.6 L29,13.6 Z M29,11.9 C29,12.1 29,12.2 28.7,12.3 C26.6,13.2 25.8,13.7 25.8,14.8 C25.8,15 25.9,15.9 26.9,15.9 C27.5,15.9 28.3,15.5 28.8,14.9 L28.9,14.9 C28.9,14.9 29,14.9 29.1,15.1 C29.2,15.4 29.5,15.8 30.1,15.8 C30.6,15.8 31.5,15.2 31.5,14.8 C31.5,14.8 31.5,14.7 31.4,14.7 C31.3,14.7 31.3,14.7 31.2,14.8 C31.1,14.9 31,15 30.8,15 C30.5,15 30.4,14.6 30.4,14.1 L30.4,10.4 C30.4,9.9 30.1,9.4 28.8,9.4 C26.8,9.4 25.9,10.8 25.9,11.2 C25.9,11.4 26,11.5 26.2,11.5 C26.2,11.5 26.9,11.4 27.2,10.8 C27.3,10.6 27.6,9.7 28.4,9.7 C29,9.7 29.1,10.3 29.1,10.8 L29.1,11.9 L29,11.9 L29,11.9 Z" id="Shape"></path>
                        <path d="M37.3,11.8 C37.3,11.2 37.3,10.1 35.9,10.1 C35.5,10.1 35,10.3 34.7,10.6 C34.5,10.7 34.5,11 34.5,11.3 L34.5,14.2 C34.5,14.9 34.5,15.1 35,15.2 C35.4,15.2 35.4,15.3 35.4,15.4 C35.4,15.6 35.3,15.6 35.2,15.6 C35,15.6 34,15.5 33.8,15.5 C33.6,15.5 32.6,15.6 32.4,15.6 C32.3,15.6 32.1,15.6 32.1,15.4 C32.1,15.3 32.2,15.2 32.5,15.2 C33.1,15.1 33.1,15 33.1,14.2 L33.1,11.5 C33.1,10.9 33.1,10.5 32.7,10.5 C32.5,10.5 32.3,10.5 32.3,10.3 C32.3,10.3 32.4,10.2 32.5,10.2 C32.6,10.1 33.5,9.8 33.9,9.2 C34,9.1 34.1,9 34.2,9 C34.3,9 34.3,9.1 34.3,9.2 L34.3,9.9 C34.3,10.1 34.3,10.1 34.4,10.1 L34.6,10.1 C35.3,9.2 35.8,9.1 36.5,9.1 C37.5,9.1 38.4,9.5 38.4,10.8 L38.4,14 C38.4,14.7 38.4,14.9 38.9,15 C39.3,15 39.3,15.1 39.3,15.2 C39.3,15.4 39.2,15.4 39.1,15.4 C38.9,15.4 37.9,15.3 37.7,15.3 C37.5,15.3 36.5,15.4 36.2,15.4 C36.2,15.4 36,15.4 36,15.2 C36,15.1 36.1,15 36.4,15 C37,14.9 37,14.8 37,14 L37,11.8 L37.3,11.8 L37.3,11.8 Z" id="Shape"></path>
                        <path d="M45.4,11.8 C45.4,11.2 45.4,10.1 44.1,10.1 C43.7,10.1 43.2,10.3 42.9,10.6 C42.7,10.7 42.7,11 42.7,11.3 L42.7,14.2 C42.7,14.9 42.7,15.1 43.2,15.2 C43.5,15.2 43.6,15.3 43.6,15.4 C43.6,15.6 43.5,15.6 43.4,15.6 C43.2,15.6 42.2,15.5 41.9,15.5 C41.7,15.5 40.7,15.6 40.5,15.6 C40.4,15.6 40.3,15.6 40.3,15.4 C40.3,15.3 40.4,15.2 40.7,15.2 C41.2,15.1 41.2,15 41.2,14.2 L41.2,11.5 C41.2,10.9 41.2,10.5 40.8,10.5 C40.6,10.5 40.5,10.5 40.5,10.3 C40.5,10.3 40.5,10.2 40.7,10.2 C40.8,10.1 41.7,9.8 42.1,9.2 C42.2,9.1 42.3,9 42.4,9 C42.5,9 42.5,9.1 42.5,9.2 L42.5,9.9 L42.5,10.1 L42.7,10.1 C43.6,9.2 44,9.1 44.7,9.1 C45.6,9.1 46.6,9.5 46.6,10.8 L46.6,14 C46.6,14.7 46.6,14.9 47.1,15 C47.4,15 47.5,15.1 47.5,15.2 C47.5,15.4 47.4,15.4 47.3,15.4 C47.1,15.4 46.1,15.3 45.8,15.3 C45.7,15.3 44.6,15.4 44.4,15.4 C44.3,15.4 44.2,15.4 44.2,15.2 C44.2,15.1 44.3,15 44.6,15 C45.1,14.9 45.1,14.8 45.1,14 L45.1,11.8 L45.4,11.8 L45.4,11.8 Z" id="Shape"></path>
                        <path d="M49.3,11.7 C49.3,11 49.2,10.7 48.8,10.7 C48.7,10.7 48.5,10.7 48.5,10.5 C48.5,10.4 48.6,10.4 48.7,10.3 C49.3,10.1 49.7,10 49.9,9.8 C50,9.7 50.4,9.4 50.5,9.4 C50.7,9.4 50.7,9.6 50.7,9.9 L50.7,14.3 C50.7,15 50.7,15.2 51.2,15.3 C51.5,15.3 51.6,15.4 51.6,15.5 C51.6,15.7 51.5,15.7 51.4,15.7 C51.2,15.7 50.5,15.6 50,15.6 C49.4,15.6 48.7,15.7 48.5,15.7 C48.4,15.7 48.3,15.7 48.3,15.5 C48.3,15.4 48.4,15.3 48.7,15.3 C49.2,15.2 49.2,15.1 49.2,14.3 L49.2,11.7 L49.3,11.7 L49.3,11.7 Z M49.9,8.5 C49.5,8.5 49.2,8.2 49.2,7.8 C49.2,7.5 49.5,7.1 49.9,7.1 C50.3,7.1 50.6,7.5 50.6,8 C50.6,8.2 50.4,8.5 49.9,8.5 L49.9,8.5 L49.9,8.5 Z" id="Shape"></path>
                        <path d="M54.2,11.3 C53.9,11.3 53.9,11.3 53.9,11.2 C53.9,11 54.3,9.9 55.5,9.9 C55.7,9.9 56.7,9.9 56.7,10.6 C56.7,11 56.3,11.2 55.7,11.2 L54.2,11.2 L54.2,11.3 L54.2,11.3 Z M57.6,11.7 C57.8,11.7 58,11.7 58,11.5 C58,11.1 57.6,9.6 55.4,9.6 C53.6,9.6 52.1,10.9 52.1,12.9 C52.1,14.7 53.5,15.9 55.2,15.9 C57,15.9 58,14.7 58,14.5 C58,14.5 57.9,14.4 57.8,14.4 C57.8,14.4 57.7,14.4 57.6,14.6 C57.2,14.9 56.6,15.1 56.1,15.1 C54.6,15.1 53.6,13.9 53.6,12.4 C53.6,11.8 53.7,11.7 53.9,11.7 L57.6,11.7 L57.6,11.7 L57.6,11.7 Z" id="Shape"></path>
                        <path d="M64.5,14.9 C64.4,15.2 64.3,15.4 64.1,15.4 C64,15.4 63.9,15.2 63.8,15 L60.8,7.6 C60.7,9.3 60.6,11 60.6,12.6 C60.6,15.1 60.7,15.1 61.5,15.1 C61.8,15.1 62.1,15.2 62.1,15.4 C62.1,15.6 61.8,15.6 61.7,15.6 C61.4,15.6 61,15.5 60.3,15.5 C59.8,15.5 59.1,15.6 58.9,15.6 C58.8,15.6 58.6,15.5 58.6,15.4 C58.6,15.2 58.8,15.2 59.2,15.1 C59.6,15.1 59.9,15 59.9,13.9 C59.9,13.8 60.2,9.2 60.2,7.3 C60.2,6.6 60.2,6.6 59.5,6.4 C59,6.4 58.9,6.3 58.9,6.2 C58.9,6.1 59,6 59.3,6 L60.7,6 L61.8,6 C61.9,6 62,6 62.2,6.3 L64.8,12.7 L67.3,6.5 C67.4,6 67.6,6 67.8,6 L69.1,6 L70.1,6 C70.2,6 70.4,6 70.4,6.2 C70.4,6.4 70.3,6.4 69.9,6.4 C69.2,6.4 69.2,6.6 69.2,7.5 L69.4,14 C69.5,15 69.5,15.2 70.1,15.2 C70.4,15.2 70.6,15.2 70.6,15.4 C70.6,15.6 70.3,15.6 70.2,15.6 C70,15.6 69.1,15.5 68.6,15.5 C67.9,15.5 67,15.6 66.7,15.6 C66.6,15.6 66.4,15.6 66.4,15.4 C66.4,15.2 66.6,15.2 67,15.1 C67.7,15.1 67.7,14.7 67.7,14 L67.5,7.4 L64.5,14.9 L64.5,14.9 Z" id="Shape"></path>
                        <path d="M74.3,13.5 C74.3,14.5 73.8,14.9 73.2,14.9 C72.9,14.9 72.6,14.7 72.6,14 C72.6,13.7 72.6,13.3 73.5,12.8 C73.7,12.7 74,12.5 74.2,12.5 C74.3,12.5 74.3,12.5 74.3,12.6 L74.3,13.5 L74.3,13.5 Z M74.3,11.8 C74.3,12 74.3,12.1 74,12.2 C72,13.1 71.2,13.6 71.2,14.7 C71.2,14.9 71.3,15.8 72.3,15.8 C72.9,15.8 73.6,15.4 74.2,14.8 L74.3,14.8 C74.3,14.8 74.3,14.8 74.4,15 C74.6,15.3 74.8,15.7 75.4,15.7 C76,15.7 76.9,15.1 76.9,14.7 L76.8,14.6 C76.7,14.6 76.7,14.6 76.5,14.7 C76.4,14.8 76.3,14.9 76.2,14.9 C75.8,14.9 75.8,14.5 75.8,14 L75.8,10.3 C75.8,9.8 75.5,9.3 74.2,9.3 C72.2,9.3 71.2,10.7 71.2,11.1 C71.2,11.3 71.4,11.4 71.5,11.4 C71.5,11.4 72.4,11.3 72.6,10.7 C72.7,10.5 73,9.6 73.8,9.6 C74.4,9.6 74.4,10.2 74.4,10.7 L74.4,11.8 L74.3,11.8 L74.3,11.8 Z" id="Shape"></path>
                        <path d="M79.4,11.2 C79.1,11.2 79,11.2 79,11.1 C79,10.9 79.4,9.8 80.7,9.8 C80.9,9.8 81.8,9.8 81.8,10.5 C81.8,10.9 81.5,11.1 80.9,11.1 L79.4,11.1 L79.4,11.2 L79.4,11.2 Z M82.8,11.6 C83,11.6 83.1,11.6 83.1,11.4 C83.1,11 82.7,9.5 80.6,9.5 C78.8,9.5 77.3,10.8 77.3,12.8 C77.3,14.6 78.6,15.8 80.4,15.8 C82.1,15.8 83.1,14.6 83.1,14.4 C83.1,14.4 83.1,14.3 83,14.3 C82.9,14.3 82.9,14.3 82.7,14.5 C82.4,14.8 81.8,15 81.2,15 C79.8,15 78.9,13.8 78.9,12.3 C78.9,11.7 79,11.6 79.2,11.6 L82.8,11.6 L82.8,11.6 L82.8,11.6 Z" id="Shape"></path>
                        <path d="M0.1,3.4 C0.7,3.2 0.1,2.9 0.7,2.7 C1.2,2.6 1.2,2.8 2,2.6 C2,2.6 1.7,1.5 3.4,1.2 C5,1 5.4,1.5 5.3,2.5 C5.3,3.1 6.2,2.7 6.6,3 C7.1,3.2 7.6,3.2 8,3.6 C8.3,4 8.4,3.8 8.9,4.3 C9.5,4.9 9.5,4.7 9.8,4.4 C10,4 10.4,3.8 10.9,3.8 C12.6,3.8 12.9,4.7 13.2,5.3 C13.8,6.6 13.2,8.2 12.2,8.6 C10.9,9 11.8,8.3 12.5,9.3 C12.6,9.5 12.6,10 11.9,10.5 C11.8,10.6 13.5,11.4 13.9,13.8 C14.1,14.5 13.7,15.6 14.4,15.6 L14.4,0.9 L0.1,0.9 L0.1,3.4 L0.1,3.4 L0.1,3.4 Z" id="Shape"></path>
                        <path d="M0.2,10.4 L5.4,10.1 L7.9,6.2 L9.9,10.4 L10.6,10.5 L10.6,10.1 L7.9,5.1 L4.7,6.6 L4.6,5.9 L3,5.9 L3,6.9 L0.2,10.4 L0.2,10.4 Z" id="Shape"></path>
                        <path d="M6.9,8.4 L7.6,8.4 L7.7,9.7 L6.9,9.7 L6.9,8.4 L6.9,8.4 Z" id="Shape"></path>
                        <path d="M7.4,10.5 L8.1,10.5 L8,12.1 L7.4,12.1 C7.4,12.1 7.3,12.4 7,12.5 C6.4,12.7 3.7,12.5 2.9,12.8 C2.3,13 1.6,13.3 1.6,13.9 C1.6,14.3 1.7,14.3 1.8,14.9 C2,15.8 2.1,15.6 2.1,15.6 L0.1,15.6 L0.1,11 L4.7,11 C4.7,11 6.1,11.3 6.5,11.6 C7,11.8 7.2,11.7 7.2,11.7 L7.4,10.5 L7.4,10.5 Z" id="Shape"></path>
                        <path d="M9.1,13 C8.1,13.2 4.8,13.1 4.9,14.1 C5,14.7 5.6,15.5 6,15.6 C6.3,15.7 11,15.6 11,15.6 C11,15.6 10.2,12.6 9.1,13 L9.1,13 L9.1,13 Z" id="Shape"></path>
                    </g>
                    <g id="Group" transform="translate(219.000000, 1.000000)">
                        <path d="M3.7,12.8 C3.8,15.1 5.7,16.1 7.9,16.1 C9.5,16.1 10.6,15.9 11.6,15.5 L12.1,17.7 C10.9,18.1 9.3,18.5 7.4,18.5 C3,18.5 0.4,15.9 0.4,12 C0.4,8.4 2.7,5.1 7,5.1 C11.4,5.1 12.8,8.5 12.8,11.3 C12.8,11.9 12.7,12.4 12.7,12.7 L3.7,12.7 L3.7,12.8 Z M9.7,10.6 C9.7,9.4 9.2,7.5 6.9,7.5 C4.8,7.5 3.9,9.3 3.8,10.6 L9.7,10.6 L9.7,10.6 Z" id="Shape"></path>
                        <path d="M15.5,15.4 C16.3,15.8 17.7,16.3 19,16.3 C20.5,16.3 21.2,15.7 21.2,14.9 C21.2,14 20.6,13.6 19,13 C16.4,12.1 15.3,10.8 15.3,9.3 C15.3,7 17.3,5.3 20.4,5.3 C21.9,5.3 23.2,5.7 24,6.1 L23.3,8.4 C22.7,8.1 21.6,7.7 20.4,7.7 C19.2,7.7 18.5,8.3 18.5,9 C18.5,9.8 19.1,10.2 20.9,10.8 C23.3,11.6 24.5,12.8 24.5,14.7 C24.5,17 22.6,18.7 19,18.7 C17.4,18.7 15.9,18.3 14.9,17.8 L15.5,15.4 L15.5,15.4 Z" id="Shape"></path>
                        <path d="M27.2,9.6 C27.2,7.9 27.2,6.6 27.1,5.5 L30.1,5.5 L30.2,7.9 L30.3,7.9 C31,6.1 32.5,5.2 34,5.2 C34.3,5.2 34.5,5.2 34.8,5.3 L34.8,8.4 C34.5,8.3 34.2,8.3 33.8,8.3 C32.2,8.3 31.1,9.3 30.8,10.7 C30.7,11 30.7,11.3 30.7,11.7 L30.7,18.3 L27.3,18.3 L27.3,9.6 L27.2,9.6 Z" id="Shape"></path>
                        <path d="M40.7,1.9 C40.7,2.9 40,3.6 38.8,3.6 C37.7,3.6 36.9,2.8 36.9,1.9 C36.9,0.9 37.7,0.1 38.8,0.1 C39.9,0.2 40.6,0.9 40.7,1.9 L40.7,1.9 Z M37,18.3 L37,5.5 L40.4,5.5 L40.4,18.3 L37,18.3 L37,18.3 Z" id="Shape"></path>
                    </g>
                    <g id="Group" transform="translate(522.000000, 3.000000)">
                        <path d="M34.3,1.5 L28.6,1.5 L29,0.5 L34.3,0.5 L34.3,1.5 Z" id="Shape"></path>
                        <path d="M19.2,0.5 L24.4,0.5 L24.8,1.5 L19.2,1.5 L19.2,0.5 Z" id="Shape"></path>
                        <path d="M15,0.5 C15.9,0.6 16.6,0.9 17.3,1.5 L7.7,1.5 L7.7,0.5 L15,0.5 L15,0.5 Z" id="Shape"></path>
                        <g id="Rectangle-path">
                            <rect x="0.1" y="0.5" width="6.7" height="1"></rect>
                        </g>
                        <path d="M34.3,3.3 L28,3.3 L28.3,2.3 L34.3,2.3 L34.3,3.3 Z" id="Shape"></path>
                        <path d="M25.4,3.3 L19.2,3.3 L19.2,2.3 L25.1,2.3 L25.4,3.3 Z" id="Shape"></path>
                        <path d="M18,2.3 C18.1,2.6 18.3,2.9 18.3,3.3 L7.7,3.3 L7.7,2.3 L18,2.3 L18,2.3 Z" id="Shape"></path>
                        <g transform="translate(0.000000, 2.000000)" id="Rectangle-path">
                            <rect x="0.1" y="0.3" width="6.7" height="1"></rect>
                        </g>
                        <path d="M27.3,5.1 L27.7,4.2 L32.5,4.2 L32.5,5.1 L27.3,5.1 Z" id="Shape"></path>
                        <path d="M25.8,4.2 L26.1,5.1 L21,5.1 L21,4.2 L25.8,4.2 Z" id="Shape"></path>
                        <path d="M18.3,4.2 C18.3,4.5 18.3,4.9 18.2,5.2 L15.3,5.2 L15.3,4.2 L18.3,4.2 L18.3,4.2 Z" id="Shape"></path>
                        <g transform="translate(2.000000, 4.000000)" id="Rectangle-path">
                            <rect x="0" y="0.2" width="2.9" height="1"></rect>
                        </g>
                        <g transform="translate(9.000000, 4.000000)" id="Rectangle-path">
                            <rect x="0.6" y="0.2" width="2.9" height="1"></rect>
                        </g>
                        <path d="M23.8,6.2 L23.8,7 L21,7 L21,6 L26.4,6 L26.7,6.9 L27.1,6 L32.5,6 L32.5,7 L29.7,7 L29.7,6.2 L29.4,7 L24.1,7 L23.8,6.2 Z" id="Shape"></path>
                        <path d="M9.6,6 L17.8,6 C17.6,6.3 17.3,6.7 17,7 L9.6,7 C9.6,7 9.6,6 9.6,6 L9.6,6 Z" id="Shape"></path>
                        <g transform="translate(2.000000, 6.000000)" id="Rectangle-path">
                            <rect x="0" y="0" width="2.9" height="1"></rect>
                        </g>
                        <g transform="translate(29.000000, 7.000000)" id="Rectangle-path">
                            <rect x="0.7" y="0.8" width="2.8" height="1"></rect>
                        </g>
                        <rect id="Rectangle-path" x="21" y="7.8" width="2.8" height="1"></rect>
                        <path d="M29.1,7.8 L28.8,8.8 L24.8,8.8 L24.4,7.8 L29.1,7.8 L29.1,7.8 Z" id="Shape"></path>
                        <path d="M9.6,7.8 L17,7.8 C17.3,8.1 17.6,8.4 17.9,8.8 L9.6,8.8 L9.6,7.8 L9.6,7.8 Z" id="Shape"></path>
                        <rect id="Rectangle-path" x="2" y="7.8" width="2.9" height="1"></rect>
                        <g transform="translate(29.000000, 9.000000)" id="Rectangle-path">
                            <rect x="0.7" y="0.7" width="2.8" height="1"></rect>
                        </g>
                        <g transform="translate(21.000000, 9.000000)" id="Rectangle-path">
                            <rect x="0" y="0.7" width="2.8" height="1"></rect>
                        </g>
                        <path d="M28.1,10.6 C28.1,10.6 28.4,9.6 28.5,9.6 L25.1,9.6 L25.4,10.6 L28.1,10.6 L28.1,10.6 Z" id="Shape"></path>
                        <rect id="Rectangle-path" x="9.6" y="9.7" width="2.9" height="1"></rect>
                        <path d="M18.2,9.7 C18.3,10 18.4,10.3 18.4,10.7 L15.3,10.7 L15.3,9.7 L18.2,9.7 L18.2,9.7 Z" id="Shape"></path>
                        <g transform="translate(2.000000, 9.000000)" id="Rectangle-path">
                            <rect x="0" y="0.7" width="2.9" height="1"></rect>
                        </g>
                        <g transform="translate(29.000000, 11.000000)" id="Rectangle-path">
                            <rect x="0.7" y="0.5" width="4.7" height="1"></rect>
                        </g>
                        <g transform="translate(19.000000, 11.000000)" id="Rectangle-path">
                            <rect x="0.2" y="0.5" width="4.7" height="1"></rect>
                        </g>
                        <path d="M27.5,12.4 L26,12.4 L25.7,11.5 L27.8,11.5 L27.5,12.4 Z" id="Shape"></path>
                        <path d="M0.1,11.5 L0.1,12.5 L6.8,12.5 L6.8,11.5 L0.1,11.5 L0.1,11.5 Z" id="Shape"></path>
                        <path d="M18.3,11.5 C18.2,11.8 18.2,12.2 17.9,12.5 L17.8,12.5 L7.6,12.5 L7.6,11.5 L18.3,11.5 L18.3,11.5 Z" id="Shape"></path>
                        <path d="M26.8,14.3 L26.7,14.3 L26.3,13.3 L27.2,13.3 L26.8,14.3 Z" id="Shape"></path>
                        <g transform="translate(29.000000, 13.000000)" id="Rectangle-path">
                            <rect x="0.7" y="0.3" width="4.7" height="1"></rect>
                        </g>
                        <path d="M7.7,14.3 L7.7,13.3 L17.3,13.3 C16.7,13.9 15.8,14.3 14.8,14.3 L7.7,14.3" id="Shape"></path>
                        <g transform="translate(19.000000, 13.000000)" id="Rectangle-path">
                            <rect x="0.2" y="0.3" width="4.7" height="1"></rect>
                        </g>
                        <rect id="Rectangle-path" x="0.1" y="13.3" width="6.7" height="1"></rect>
                    </g>
                    <g id="Group" transform="translate(422.000000, 2.000000)">
                        <path d="M28.4,0.8 L23,0.8 L23,3.4 C21.6,1.8 19.6,0.8 17.3,0.8 L9.3,0.8 L0.5,16 L6.5,16 L8.4,12.7 L12.4,12.7 L12.4,16 L17.4,16 C19.7,16 21.7,15 23.1,13.4 L23.1,16 L28.3,16 L28.3,12.7 L28.5,12.7 C31.8,12.7 34.4,10 34.4,6.8 C34.4,3.6 31.7,0.8 28.4,0.8 L28.4,0.8 L28.4,0.8 Z M28.4,10.8 L26.3,10.8 L26.3,14.1 L24.9,14.1 L24.9,10.8 L22.5,10.8 C21.6,12.7 19.6,14.1 17.3,14.1 L14.2,14.1 L14.2,10.8 L7.2,10.8 L5.3,14.1 L3.8,14.1 L10.5,2.7 L17.3,2.7 C20.2,2.7 22.6,4.8 23,7.6 L24.9,7.6 L24.9,2.7 L28.4,2.7 C30.6,2.7 32.5,4.5 32.5,6.8 C32.5,9 30.7,10.8 28.4,10.8 L28.4,10.8 L28.4,10.8 Z" id="Shape"></path>
                        <path d="M17.4,4.1 L15.7,4.1 L15.7,6 L17.4,6 C18.8,6 19.9,7.1 19.9,8.5 C19.9,9.9 18.8,10.9 17.4,10.9 L15.7,10.9 L15.7,12.8 L17.4,12.8 C19.8,12.8 21.7,10.9 21.7,8.5 C21.7,6 19.7,4.1 17.4,4.1 L17.4,4.1 L17.4,4.1 Z" id="Shape"></path>
                        <path d="M28.4,4.1 L26.3,4.1 L26.3,6 L28.4,6 C28.8,6 29.2,6.4 29.2,6.8 C29.2,7.2 28.8,7.6 28.4,7.6 L26.3,7.6 L26.3,9.5 L28.4,9.5 C29.9,9.5 31.1,8.3 31.1,6.8 C31.1,5.3 29.9,4.1 28.4,4.1 L28.4,4.1 L28.4,4.1 Z" id="Shape"></path>
                        <path d="M12.4,7.6 L9.2,7.6 L8.1,9.4 L14.3,9.4 L14.3,4.1 L12.4,4.1 L12.4,7.6 L12.4,7.6 Z" id="Shape"></path>
                    </g>
                    <g id="Group" transform="translate(698.000000, 2.000000)">
                        <path d="M77.7,13.6 C76.9,13.2 76.7,11.9 76.8,9 L76.8,4.4 L75.2,4.4 L75.6,3.6 L76.8,3.6 L76.8,1.4 L79.7,0.3 L79.7,3.5 L81,3.5 L80.6,4.4 L79.6,4.4 L79.6,12.3 C79.7,12.9 79.9,13.3 80.2,13.6 L77.7,13.6 L77.7,13.6 Z" id="Shape"></path>
                        <path d="M4.9,5.3 C5.2,6.1 5.9,7 5.4,8 C5.2,9 4.2,9.8 3.2,10 C2.2,10.1 1.2,9.9 0.4,9.3 C-0.1,6.4 1,3.8 3.3,2.2 L4.9,5.3 L4.9,5.3 Z" id="Shape"></path>
                        <path d="M8.9,14 C8.4,15.7 3.3,14.6 1.7,11.8 C3.8,12 6.2,10.2 6.2,8 L8.9,14 L8.9,14 Z" id="Shape"></path>
                        <path d="M11,13.8 C11.2,13.7 11.7,13.5 11.8,13 L6.3,1 C5.9,1 5.7,0.9 5.2,1.3 L11,13.8 L11,13.8 Z" id="Shape"></path>
                        <path d="M13.5,11.2 C15.8,7.7 13.9,1.8 8.8,1 L13.5,11.2 L13.5,11.2 Z" id="Shape"></path>
                        <path d="M54.8,3.9 C55.3,3.5 56.3,3.4 56.9,3.7 C57.2,3.8 57.4,4 57.6,4.2 L56.4,6 C56.3,5.9 56.1,5.8 56,5.7 C55.4,5.4 54.8,5.6 54.4,5.9 L54.4,11.2 C54.4,12.1 54.6,13 55,13.4 L52.3,13.4 C51.7,13 51.6,12.3 51.6,11.7 L51.6,4.6 C51.6,4 51.5,3.8 51.2,3.5 L54,3.5 C54.2,3.7 54.2,3.9 54.4,4.2 L54.8,3.9 L54.8,3.9 Z" id="Shape"></path>
                        <path d="M58.2,5.7 C58.2,5 58.3,4.2 57.9,3.6 L60.5,3.6 C60.7,3.7 60.8,3.9 60.8,4.1 C60.9,4.3 60.9,4.5 61,4.8 L61,12.4 C61.1,12.8 61.3,13.3 61.6,13.7 L58.9,13.7 C58,12.8 58.3,11.4 58.2,9.9 L58.2,5.7 L58.2,5.7 Z" id="Shape"></path>
                        <path d="M62.3,5.8 C62.6,5 63.4,4.6 64.1,4.2 C65.1,3.8 66.1,3 67.2,3.7 C68.1,4.3 68.9,5 69.5,5.9 C69.6,6.3 69.7,6.6 69.8,7 C69.8,7.5 69.9,7.9 69.9,8.4 L69.9,10 C69.9,10.9 69.4,11.7 68.7,12.4 C67.6,13.4 66.3,14.4 64.8,13.7 C63.5,13.1 62,11.9 62.1,10.2 C62,9 62,8 62.2,6.9 C62.1,6.4 62.1,6.1 62.3,5.8 L62.3,5.8 L62.3,5.8 Z M64.9,11.1 C65,11.6 65.3,12.1 65.8,12.2 C66.1,12.2 66.4,11.9 66.6,11.7 C67.2,10.5 67.1,9.2 67.1,7.9 C66.9,6.9 67.1,5.5 66.1,4.9 C65.7,4.8 65.4,5 65.2,5.3 C64.8,5.9 64.7,6.7 64.7,7.5 C64.6,8.8 64.8,9.8 64.9,11.1 L64.9,11.1 L64.9,11.1 Z" id="Shape"></path>
                        <path d="M71.7,13.6 C70.9,13.2 70.7,11.9 70.8,9 L70.8,4.4 L69.2,4.4 L69.6,3.6 L70.8,3.6 L70.8,1.4 L73.7,0.3 L73.7,3.5 L75,3.5 L74.6,4.4 L73.6,4.4 L73.6,12.3 C73.7,12.9 73.9,13.3 74.2,13.6 L71.7,13.6 L71.7,13.6 Z" id="Shape"></path>
                        <path d="M45,4.8 C45,4.2 44.9,4 44.6,3.7 L47.4,3.7 C47.6,3.9 47.6,4.1 47.8,4.4 L48.3,4 C48.8,3.6 49.8,3.5 50.4,3.8 C50.7,3.9 50.9,4.1 51.1,4.3 L49.9,6.1 C49.8,6 49.6,5.9 49.5,5.8 C48.9,5.5 48.3,5.7 47.9,6 L47.9,11.3 C47.9,12.2 48.1,13.1 48.5,13.5 L45.8,13.5 C45.2,13.1 45.1,12.4 45.1,11.8 L45,4.8 L45,4.8 Z" id="Shape"></path>
                        <path d="M24.1,7.6 L23.1,9.7 C22.4,10.9 21.4,12.4 20,12.8 C19.4,13 18.9,12.8 18.4,12.8 L16.6,15.7 C16.7,15.8 16.9,16 17.1,16 C20.2,17.2 21.5,15.9 24.6,8.9 L27.5,15.1 L31.4,15.1 L29.6,10.9 L30.6,8.7 L33.5,15 L37.2,15 L30.7,0.7 L27.7,2.2 L30.1,7.5 L29.1,9.6 L24.8,0.3 L21.6,1.9 L24.1,7.6 L24.1,7.6 Z" id="Shape"></path>
                        <path d="M36,10.1 C36.1,9.1 36.6,8.1 37.6,7.6 C38.6,7 39.7,6.8 40.6,6.3 C40.8,6.2 41,6 41,5.8 C41,5.5 40.9,5.3 40.6,5.2 C39.1,4.9 37.9,5.8 36.8,6.8 C36.9,6.1 37,5.4 37.4,4.7 C37.6,4.5 37.7,4.3 37.9,4.2 C39,3.7 40.3,3.5 41.5,3.6 C42.5,3.7 43.4,4.4 43.7,5.2 C43.9,5.6 43.9,6.1 43.9,6.5 L43.9,12.3 C43.9,12.8 44.1,13.3 44.4,13.7 L41.6,13.7 C41.3,13.4 41.1,13 41,12.6 C40.2,13.3 38.6,14.3 37.6,13.6 C36.7,13.1 35.8,11.6 36,10.1 L36,10.1 L36,10.1 Z M40.9,8.1 C40.9,7.7 40.6,7.7 40.4,7.7 C39.7,7.8 39.2,8.4 38.8,8.9 C38.5,9.4 38.4,9.8 38.4,10.3 C38.4,10.8 38.4,11.1 38.6,11.5 C38.7,11.7 38.9,11.8 39.2,11.9 C39.6,12 40,11.9 40.4,11.6 C41.2,11.2 41,10.3 41.1,9.5 L40.9,8.1 L40.9,8.1 Z" id="Shape"></path>
                        <path d="M82.3,12.3 C82.4,12.4 82.5,12.6 82.5,12.8 C82.5,13 82.4,13.2 82.3,13.3 C82.2,13.4 82,13.5 81.8,13.5 C81.6,13.5 81.4,13.4 81.3,13.3 C81.2,13.2 81.1,13 81.1,12.8 C81.1,12.6 81.2,12.4 81.3,12.3 C81.4,12.2 81.6,12.1 81.8,12.1 C82,12.1 82.1,12.1 82.3,12.3 L82.3,12.3 L82.3,12.3 Z M82.4,12.2 C82.2,12 82,11.9 81.8,11.9 C81.6,11.9 81.4,12 81.2,12.1 C81,12.3 80.9,12.5 80.9,12.7 C80.9,12.9 81,13.1 81.2,13.3 C81.4,13.5 81.6,13.6 81.8,13.6 C82,13.6 82.2,13.5 82.4,13.4 C82.6,13.2 82.7,13 82.7,12.8 C82.6,12.6 82.6,12.3 82.4,12.2 L82.4,12.2 L82.4,12.2 Z M81.9,12.7 L81.8,12.7 L81.7,12.7 L81.7,12.4 L81.8,12.4 L81.9,12.4 C82,12.4 82,12.5 82,12.5 L81.9,12.7 L81.9,12.7 L81.9,12.7 Z M81.6,12.9 L81.6,12.9 L81.7,12.9 L81.8,12.9 C81.8,12.9 81.9,12.9 81.9,13 L81.9,13.1 L81.9,13.2 L82.1,13.2 L82.1,13.2 L82.1,13.1 C82.1,13 82.1,12.9 82,12.9 C82,12.9 81.9,12.9 81.9,12.8 C82,12.8 82,12.8 82.1,12.7 C82.1,12.7 82.2,12.6 82.2,12.5 C82.2,12.4 82.2,12.3 82.1,12.3 L81.9,12.3 L81.7,12.3 L81.4,12.3 L81.4,13.3 L81.7,13.3 L81.7,12.9 L81.6,12.9 L81.6,12.9 Z" id="Shape"></path>
                    </g>
                    <g id="Group" transform="translate(311.000000, 2.000000)">
                        <path d="M2.4,5 L0.8,5 C0.5,5 0.2,5.3 0.2,5.6 L0.2,15.6 C0.2,15.9 0.5,16.2 0.8,16.2 L2.4,16.2 C2.6,16.2 2.7,16.1 2.8,16 C2.9,15.9 3,15.7 3,15.6 L3,5.6 C3,5.3 2.7,5 2.4,5 L2.4,5 Z" id="Shape"></path>
                        <path d="M42.5,5 L40.9,5 C40.6,5 40.3,5.3 40.3,5.6 L40.3,15.6 C40.3,15.9 40.6,16.2 40.9,16.2 L42.5,16.2 C42.8,16.2 43.1,15.9 43.1,15.6 L43.1,5.6 C43.1,5.3 42.9,5 42.5,5 L42.5,5 Z" id="Shape"></path>
                        <path d="M25.4,5 L22.3,5 L20.7,5 L17.6,5 C17.3,5 17,5.3 17,5.6 L17,7.2 C17,7.5 17.3,7.8 17.6,7.8 L20.1,7.8 L20.1,15.6 C20.1,15.9 20.4,16.2 20.7,16.2 L22.3,16.2 C22.6,16.2 22.9,15.9 22.9,15.6 L22.9,7.8 L25.4,7.8 C25.7,7.8 26,7.5 26,7.2 L26,5.6 C26,5.4 25.9,5.3 25.8,5.2 C25.7,5.1 25.5,5 25.4,5 L25.4,5 Z" id="Shape"></path>
                        <path d="M53.9,7.2 L53.9,5.6 C53.9,5.3 53.6,5 53.3,5 L50.2,5 L48.6,5 L45.5,5 C45.2,5 44.9,5.3 44.9,5.6 L44.9,7.2 C44.9,7.5 45.2,7.8 45.5,7.8 L48,7.8 L48,15.6 C48,15.9 48.3,16.2 48.6,16.2 L50.2,16.2 C50.5,16.2 50.8,15.9 50.8,15.6 L50.8,7.8 L53.3,7.8 C53.7,7.8 53.9,7.5 53.9,7.2 L53.9,7.2 Z" id="Shape"></path>
                        <path d="M13.3,5 L13.3,5 C12.9,4.8 12.4,4.8 12,4.8 C10.5,4.8 9.2,5.6 8.5,6.2 L8.5,5.6 C8.5,5.3 8.2,5 7.9,5 L6.3,5 C6,5 5.7,5.3 5.7,5.6 L5.7,15.6 C5.7,15.9 6,16.2 6.3,16.2 L7.9,16.2 C8.1,16.2 8.2,16.1 8.3,16 C8.4,15.9 8.5,15.7 8.5,15.6 L8.5,8.5 C9.7,7.6 10.6,7.3 11.2,7.3 C11.6,7.3 11.8,7.4 12,7.6 C12.3,7.8 12.5,8.2 12.6,8.6 C12.7,9 12.7,9.3 12.7,9.5 L12.7,15.7 C12.7,16 13,16.3 13.3,16.3 L14.9,16.3 C15.2,16.3 15.5,16 15.5,15.7 L15.5,8.7 C15.5,8.7 15.5,8.7 15.5,8.6 C15.5,8.3 15.5,7.7 15.2,7 C15,6.1 14.4,5.4 13.3,5 L13.3,5 Z" id="Shape"></path>
                        <path d="M37.1,5 L35.5,5 C35.3,5 35.1,5.1 35,5.2 C34.9,5.3 34.7,5.5 34.7,5.6 L34.7,12.7 C33.5,13.6 32.7,13.9 32.1,13.9 C31.8,13.9 31.5,13.8 31.3,13.7 C31,13.5 30.8,13.1 30.7,12.7 C30.6,12.3 30.6,12 30.5,11.7 L30.5,5.5 C30.5,5.2 30.2,4.9 29.9,4.9 L28.3,4.9 C28,4.9 27.7,5.2 27.7,5.5 L27.7,12.5 C27.7,12.5 27.7,12.5 27.7,12.6 C27.7,12.9 27.7,13.5 28,14.2 C28.3,14.9 28.9,15.6 30,16 L30,16 C30.4,16.2 30.9,16.2 31.3,16.2 C32.8,16.2 34.1,15.4 34.8,14.8 L34.8,15.4 C34.8,15.7 35.1,16 35.4,16 L37,16 C37.2,16 37.3,15.9 37.4,15.8 C37.5,15.7 37.5,15.5 37.5,15.4 L37.5,5.4 C37.5,5.2 37.5,5.1 37.4,5 C37.4,5.1 37.3,5 37.1,5 L37.1,5 Z" id="Shape"></path>
                        <circle id="Oval" cx="21.4" cy="2.1" r="1.8"></circle>
                        <circle id="Oval" cx="49.4" cy="2.1" r="1.8"></circle>
                        <path d="M54.8,14.7 C54.7,14.5 54.6,14.4 54.4,14.4 C54.2,14.3 54.1,14.3 53.9,14.3 C53.7,14.3 53.6,14.3 53.4,14.4 C53.3,14.5 53.1,14.6 53,14.7 C52.9,14.9 52.9,15 52.9,15.2 C52.9,15.4 52.9,15.5 53,15.7 C53.1,15.9 53.2,16 53.3,16 C53.4,16.1 53.6,16.1 53.8,16.1 C54,16.1 54.1,16.1 54.3,16 C54.4,15.9 54.6,15.8 54.6,15.7 C54.7,15.5 54.7,15.4 54.7,15.2 C54.9,15 54.8,14.9 54.8,14.7 L54.8,14.7 Z M54.6,15.6 C54.5,15.7 54.4,15.8 54.3,15.9 C54.2,16 54,16 53.9,16 C53.8,16 53.6,16 53.5,15.9 C53.4,15.8 53.3,15.7 53.2,15.6 C53.1,15.5 53.1,15.3 53.1,15.2 C53.1,15.1 53.1,14.9 53.2,14.8 C53.3,14.7 53.4,14.6 53.5,14.5 C53.6,14.4 53.8,14.4 53.9,14.4 C54,14.4 54.2,14.4 54.3,14.5 C54.4,14.6 54.5,14.7 54.6,14.8 C54.7,14.9 54.7,15.1 54.7,15.2 C54.7,15.3 54.7,15.5 54.6,15.6 L54.6,15.6 Z" id="Shape"></path>
                        <path d="M54.1,15.3 L54.1,15.3 C54.1,15.2 54.2,15.2 54.2,15.2 C54.3,15.1 54.3,15.1 54.3,15 L54.3,14.9 L54.2,14.8 L53.9,14.8 L53.6,14.8 L53.6,15.8 L53.8,15.8 L53.8,15.4 L53.9,15.4 L54,15.4 C54,15.4 54.1,15.5 54.2,15.6 L54.3,15.8 L54.5,15.8 L54.4,15.6 C54.2,15.4 54.2,15.3 54.1,15.3 L54.1,15.3 Z M53.9,15.1 L53.7,15.1 L53.7,14.8 L53.9,14.8 L54.1,14.8 C54.1,14.8 54.2,14.8 54.2,14.9 C54.2,14.9 54.2,14.9 54.2,15 C54.2,15 54.2,15.1 54.1,15.1 C54.1,15.1 54,15.1 53.9,15.1 L53.9,15.1 Z" id="Shape"></path>
                    </g>
                    <g id="Group" transform="translate(0.000000, 32.000000)">
                        <g transform="translate(0.000000, 1.000000)" id="Shape">
                            <path d="M10.1,6.8 L7.2,7.1 L3.8,10.4 C3.2,11 2.5,10.8 2.6,10.9 L5.8,10.6 L9.3,7.2 C9.5,7.1 9.8,6.9 10.1,6.8 L10.1,6.8 Z" opacity="0.4"></path>
                            <g>
                                <path d="M8.6,1 L1.4,8.1 C0.7,8.8 0.7,9.8 1.4,10.5 C2.1,11.2 3.1,11.2 3.8,10.5 L11,3.4 C11.7,2.7 11.7,1.7 11,1 C10.3,0.3 9.2,0.3 8.6,1 L8.6,1 Z"></path>
                                <path d="M9.3,7.3 L2.1,14.4 C1.4,15.1 1.4,16.1 2.1,16.8 C2.8,17.5 3.8,17.5 4.5,16.8 L11.7,9.7 C12.4,9 12.4,8 11.7,7.3 C11,6.6 9.9,6.6 9.3,7.3 L9.3,7.3 Z"></path>
                            </g>
                        </g>
                        <g transform="translate(16.000000, 0.000000)" id="Shape">
                            <path d="M0.3,15.2 C1,15.6 2.1,15.9 3.3,15.9 C5.9,15.9 7.3,14.7 7.3,12.8 C7.3,11.2 6.3,10.3 4.5,9.6 C3,9 2.4,8.6 2.4,7.8 C2.4,7 3,6.3 4.3,6.3 C5.3,6.3 6.1,6.7 6.5,6.9 L7,5.5 C6.4,5.1 5.5,4.9 4.4,4.9 C2,4.9 0.7,6.2 0.7,8 C0.7,9.3 1.6,10.3 3.6,11 C5.1,11.5 5.7,12 5.7,13 C5.7,13.9 5,14.6 3.5,14.6 C2.5,14.6 1.5,14.2 0.9,13.8 L0.3,15.2 L0.3,15.2 Z"></path>
                            <path d="M11.3,15.7 L11.3,5 L9.5,5 L9.5,15.7 L11.3,15.7 L11.3,15.7 Z M10.4,0.6 C9.7,0.6 9.2,1.1 9.2,1.8 C9.2,2.4 9.6,2.9 10.3,2.9 C11,2.9 11.5,2.4 11.5,1.8 C11.6,1.2 11.1,0.6 10.4,0.6 L10.4,0.6 L10.4,0.6 Z"></path>
                            <path d="M14.6,3.1 L14.6,5.1 L12.9,5.1 L12.9,6.5 L14.6,6.5 L14.6,12.4 C14.6,13.8 14.8,14.8 15.3,15.3 C15.8,15.7 16.5,16 17.4,16 C18.2,16 18.8,15.9 19.2,15.8 L19,14.4 C18.7,14.5 18.4,14.5 17.9,14.5 C16.8,14.5 16.4,13.7 16.4,12.4 L16.4,6.5 L19.2,6.5 L19.2,5.1 L16.4,5.1 L16.4,2.5 L14.6,3.1 L14.6,3.1 Z"></path>
                            <path d="M29.4,10.6 C29.4,10.4 29.5,10.1 29.5,9.7 C29.5,7.8 28.6,4.8 25,4.8 C21.8,4.8 19.9,7.3 19.9,10.4 C19.9,13.8 21.9,15.9 25.3,15.9 C27.1,15.9 28.3,15.6 28.9,15.3 L28.6,14 C27.9,14.3 27,14.6 25.6,14.6 C23.6,14.6 21.9,13.5 21.8,10.7 L29.4,10.7 L29.4,10.6 L29.4,10.6 Z M21.8,9.2 C22,7.9 22.8,6.1 24.9,6.1 C27.2,6.1 27.7,8 27.7,9.2 L21.8,9.2 L21.8,9.2 Z"></path>
                            <path d="M31.3,20.1 L33.1,20.1 L33.1,14.3 C33.8,15.3 35.1,15.8 36.6,15.8 C39.3,15.8 41.5,14 41.5,10.1 C41.5,6.8 39.7,4.8 36.9,4.8 C35.1,4.8 33.7,5.5 32.9,6.7 L32.9,6.7 L32.9,5 L31.2,5 C31.2,6 31.3,7.1 31.3,8.5 L31.3,20.1 L31.3,20.1 Z M33.2,9.6 C33.2,9.4 33.3,9.1 33.3,8.8 C33.7,7.2 35,6.2 36.4,6.2 C38.6,6.2 39.8,8.1 39.8,10.3 C39.8,12.8 38.5,14.6 36.4,14.6 C34.9,14.6 33.7,13.6 33.3,12.3 C33.2,12.1 33.2,11.8 33.2,11.5 L33.2,9.6 L33.2,9.6 L33.2,9.6 Z"></path>
                            <path d="M52.5,10.6 C52.5,10.4 52.6,10.1 52.6,9.7 C52.6,7.8 51.7,4.8 48.1,4.8 C44.9,4.8 43,7.3 43,10.4 C43,13.8 45,15.9 48.4,15.9 C50.2,15.9 51.4,15.6 52,15.3 L51.7,14 C51,14.3 50.1,14.6 48.7,14.6 C46.7,14.6 45,13.5 44.9,10.7 L52.5,10.7 L52.5,10.6 L52.5,10.6 Z M44.9,9.2 C45.1,7.9 45.9,6.1 48,6.1 C50.3,6.1 50.8,8 50.8,9.2 L44.9,9.2 L44.9,9.2 Z"></path>
                            <path d="M54,15.7 L55.8,15.7 L55.8,9.1 C55.8,8.8 55.8,8.4 55.9,8.2 C56.3,7.1 57.3,6.2 58.6,6.2 C60.5,6.2 61.2,7.7 61.2,9.4 L61.2,15.7 L63,15.7 L63,9.2 C63,5.6 60.8,4.8 59.2,4.8 C57.4,4.8 56.1,5.7 55.5,6.6 L55.5,6.6 L55.5,5 L53.9,5 C54,5.9 54,6.8 54,7.9 L54,15.7 L54,15.7 Z"></path>
                        </g>
                    </g>
                    <g id="Group" transform="translate(106.000000, 36.000000)">
                        <path d="M6.3,10.8 C6,11.6 5.7,12 4.7,12 C3.7,12 3.4,11.5 3.1,10.8 L0.2,3.2 C0.1,2.8 -1.42108547e-14,2.6 -1.42108547e-14,2.3 C-1.42108547e-14,1.4 0.7,0.9 1.5,0.9 C2.3,0.9 2.7,1.5 2.8,1.9 L4.7,7.7 L6.6,1.9 C6.7,1.5 7.1,0.9 7.9,0.9 L10.8,0.9 C11.5,0.9 12,1.3 12.1,2 C12.8,1.2 13.8,0.8 14.8,0.8 C16,0.8 17.1,1.3 17.8,2.3 C18.6,1.4 19.9,0.8 20.9,0.8 C23.3,0.8 24.9,2.2 24.9,4.7 L24.9,10.3 C24.9,11.3 24.3,11.9 23.4,11.9 C22.5,11.9 21.9,11.2 21.9,10.3 L21.9,5.2 C21.9,4 21.2,3.2 20.2,3.2 C19.1,3.2 18.5,4 18.5,5.2 L18.5,10.3 C18.5,11.3 17.9,11.9 17,11.9 C16.1,11.9 15.5,11.2 15.5,10.3 L15.5,5.2 C15.5,4 14.8,3.2 13.8,3.2 C12.6,3.2 12.1,4 12.1,5.2 L12.1,10.3 C12.1,11.3 11.5,11.9 10.6,11.9 C9.7,11.9 9.1,11.2 9.1,10.3 L9.1,3 L6.3,10.8 L6.3,10.8 Z" id="Shape"></path>
                        <path d="M26,2.4 C25.9,2.1 25.9,1.9 25.9,1.7 C25.9,1.4 26.1,0.9 26.8,0.9 C27.2,0.9 27.6,1 27.8,1.8 L30.1,9.2 L32.4,2.1 C32.6,1.3 32.8,0.9 33.5,0.9 C34.1,0.9 34.3,1.3 34.6,2.1 L36.9,9.2 L39.2,1.8 C39.4,1 39.8,0.9 40.2,0.9 C40.8,0.9 41.1,1.3 41.1,1.7 C41.1,1.9 41,2.1 41,2.4 L38,11.1 C37.8,11.8 37.5,12 37,12 C36.5,12 36.2,11.8 36,11.1 L33.7,3.8 L31.4,11.1 C31.2,11.8 30.9,12 30.4,12 C29.9,12 29.6,11.8 29.4,11.1 L26,2.4 L26,2.4 Z" id="Shape"></path>
                        <path d="M43.4,6.4 C43.4,4.6 44.2,2.4 46.4,2.4 C48.6,2.4 49.4,4.6 49.4,6.4 C49.4,8.2 48.6,10.4 46.4,10.4 C44.2,10.4 43.4,8.3 43.4,6.4 L43.4,6.4 L43.4,6.4 Z M51,1.8 C51,1.2 50.5,0.9 50.2,0.9 C49.8,0.9 49.4,1.1 49.4,1.8 L49.4,2.4 C48.6,1.5 47.7,1 46.4,1 C43.3,1 41.6,3.7 41.6,6.5 C41.6,9.4 43.3,12 46.4,12 C47.6,12 48.6,11.5 49.4,10.4 L49.4,10.4 L49.4,11.2 C49.4,11.8 49.9,12.1 50.2,12.1 C50.5,12.1 51,11.9 51,11.2 L51,1.8 L51,1.8 Z" id="Shape"></path>
                        <path d="M53.4,1.9 C53.4,1.3 53.7,0.9 54.3,0.9 C54.8,0.9 55.2,1.3 55.2,1.9 L55.2,2.8 C55.6,2 56.6,0.9 57.6,0.9 C58.2,0.9 58.6,1.3 58.6,1.8 C58.6,2.3 58.2,2.6 57.5,2.8 C56.4,3 55.1,3.8 55.1,5.9 L55.1,11 C55.1,11.6 54.8,12 54.2,12 C53.7,12 53.3,11.6 53.3,11 L53.3,1.9 L53.4,1.9 L53.4,1.9 Z" id="Shape"></path>
                        <path d="M60.9,5.8 C61,4.1 61.8,2.4 64,2.4 C66,2.4 66.9,4.2 66.9,5.8 L60.9,5.8 L60.9,5.8 Z M67.7,7.1 C68.5,7.1 68.7,6.8 68.7,6.1 C68.7,3.5 67,0.8 64,0.8 C61,0.8 59.1,3.4 59.1,6.3 C59.1,9.2 60.6,11.8 64.1,11.8 C66.2,11.8 68.4,10.5 68.4,9.6 C68.4,9.1 68.1,8.8 67.8,8.8 C67.1,8.8 66.5,10.3 64.1,10.3 C62.1,10.3 60.9,8.9 60.9,7 L67.7,7 L67.7,7.1 L67.7,7.1 Z" id="Shape"></path>
                    </g>
                    <path d="M481.5,36.3 C481.2,38.2 481.1,46.8 481.5,48.6 L479.9,48.6 C478.9,47 474.2,40.6 473,39.2 C472.9,41.7 472.9,46.4 473,48.6 C472.5,48.6 472,48.5 471.4,48.6 C471.7,46.9 471.7,37.9 471.4,36.2 C471.9,36.2 472.5,36.3 473,36.2 C474.4,38.1 478.4,43.4 479.8,45.3 C479.8,43 479.9,38.1 479.7,36.2 C480.4,36.4 480.9,36.4 481.5,36.3 L481.5,36.3 L481.5,36.3 Z M467.8,42.3 C467.8,45.8 465.3,48.8 461.7,48.8 C458,48.8 455.6,45.9 455.6,42.3 C455.6,39.1 458.2,36.2 461.7,36.2 C465.3,36.2 467.8,39.1 467.8,42.3 L467.8,42.3 L467.8,42.3 Z M438,42.9 C439.1,44.3 441.4,47.2 442.5,48.7 C442.5,48.7 441.3,48.5 440.1,48.7 C439.6,47.8 436.9,43.9 436.4,43.4 L436.2,42.3 C437.8,42.3 439.1,41.5 439.1,39.7 C439.1,38.2 437.8,37.4 436.4,37.4 L435.2,37.4 C435.1,39.7 435.2,46.1 435.3,48.6 L433.2,48.6 C433.5,46.4 433.4,38.4 433.2,36.1 C434.2,36.2 434.6,36.2 435,36.2 C435.4,36.2 435.7,36.1 436.6,36.1 C438.4,36.1 440.9,36.7 440.9,39.3 C440.9,41.6 439.3,42.7 438,42.9 L438,42.9 L438,42.9 Z M429.7,48.7 C429.1,48.6 428.1,48.7 427.6,48.7 C427.4,47.9 426.9,46.5 426.4,45.1 C424.6,45 423,45 421.6,45.1 C421.3,46.1 420.7,48 420.5,48.7 L418.8,48.7 C419.6,46.9 422.8,38.1 423.3,36.3 C423.9,36.4 424.5,36.4 425.2,36.3 C425.6,38.2 428.9,47 429.7,48.7 L429.7,48.7 L429.7,48.7 Z M415.9,47.4 L415.9,48.8 C414.4,48.6 411,48.6 409.5,48.8 C409.7,46.9 409.7,38.2 409.5,36.3 C410.7,36.4 414.6,36.5 415.9,36.3 L415.9,37.7 C414.7,37.6 412.6,37.5 411.5,37.5 L411.5,41.6 C412.7,41.7 414.4,41.6 415.7,41.4 L415.7,42.8 C414.3,42.6 412.7,42.6 411.5,42.7 C411.4,44 411.4,45.9 411.5,47.4 C412.6,47.5 414.6,47.4 415.9,47.4 L415.9,47.4 L415.9,47.4 Z M405.6,39.6 C405.6,42.3 402.8,43.8 400.4,43.7 C400.4,43.4 400.4,43 400.3,42.7 C402.4,42.6 403.8,41.6 403.8,39.6 C403.8,38.1 402.6,37 400.8,37 L399.3,37 C399.3,37.8 399.3,46.1 399.5,48.6 C398.7,48.5 398.1,48.5 397.4,48.6 C397.6,46.9 397.7,37.7 397.4,35.9 C398.4,36 398.8,36 399.2,35.9 L401,35.9 C403,35.9 405.6,36.7 405.6,39.6 L405.6,39.6 L405.6,39.6 Z M465.9,42.4 C465.9,40.3 464.6,37.4 461.7,37.4 C458.7,37.4 457.6,40.3 457.6,42.4 C457.6,44.8 458.9,47.7 461.8,47.7 C464.5,47.7 465.9,44.8 465.9,42.4 L465.9,42.4 L465.9,42.4 Z M425.8,43.7 C425.3,42 424.4,39.5 423.8,38 C423.1,40.1 422.5,41.9 421.9,43.7 C423.4,43.9 424.4,43.9 425.8,43.7 L425.8,43.7 L425.8,43.7 Z M452.5,45.2 C452.5,48 450.2,48.8 448.7,48.8 C447.6,48.8 446.2,48.3 445.2,47.8 C445.2,47 445.3,46.7 445.2,46 C445.9,46.6 447.5,47.5 448.6,47.5 C449.9,47.5 450.6,46.7 450.7,45.6 C450.7,44.8 450.1,44.1 449.4,43.5 C448.6,42.9 447.8,42.4 447.2,42 C446.2,41.3 445.6,40.5 445.6,39.3 C445.6,37.7 447.1,36.3 449.2,36.3 C450.3,36.3 451.2,36.6 452.3,37.3 C452,37.8 451.7,38.2 451.5,38.7 C451,38.1 450.2,37.5 449.2,37.5 C448,37.5 447.4,38.3 447.4,39.2 C447.4,39.6 447.7,40 448.2,40.4 C448.7,40.8 449.4,41.3 450.2,41.8 C451.6,42.7 452.5,43.4 452.5,45.2 L452.5,45.2 L452.5,45.2 Z" id="Shape"></path>
                    <g id="Group" transform="translate(208.000000, 36.000000)">
                        <path d="M52.4,1.6 C51.6,0.8 50.6,0.3 48.8,0.3 C47.7,0.3 47.5,0.3 44,0.4 L44,3 L44,12.4 L47.1,12.4 L47.1,9.8 L48.7,9.8 C52.9,9.6 53.5,6.1 53.6,5.1 C53.7,3.5 53.1,2.3 52.4,1.6 L52.4,1.6 L52.4,1.6 Z M50.2,5.1 C50.1,6.7 48.8,7.2 47.1,7.1 L47.1,7.5 L47.1,3 C48.7,2.7 50.3,3.3 50.2,5.1 L50.2,5.1 L50.2,5.1 Z" id="Shape"></path>
                        <path d="M58.4,4.6 L61,5.5 C62.7,6.2 63.1,7.5 63.1,8.7 C63.1,11.4 60.9,12.5 59.1,12.6 C57.1,12.8 55.6,12.4 55.1,12.4 L55.1,9.4 C56.7,9.9 58.5,9.9 59.1,9.6 C59.6,9.4 59.9,9.1 59.9,8.8 C59.9,8.6 59.9,8.4 59.3,8.1 L56.9,7.2 C55.4,6.7 54.8,5.2 54.9,3.9 C55,1.3 57.1,4.88498131e-15 59.2,0.1 C59.8,0.1 60.7,0.1 62,0.3 L62,3.3 C60.6,3 59.9,3 59.2,3.1 C58.4,3.2 58,3.6 58,4.1 C57.9,4.2 58.1,4.5 58.4,4.6 L58.4,4.6 L58.4,4.6 Z" id="Shape"></path>
                        <path d="M14.5,4.8 L17.8,4.8 L17.8,0.3 L21,0.3 L21,12.4 L17.8,12.4 L17.8,7.6 L14.5,7.6 L14.5,12.4 L11.3,12.4 L11.3,0.3 L14.5,0.3 L14.5,4.8 L14.5,4.8 Z" id="Shape"></path>
                        <path d="M27.1,12.4 L27.1,0.3 L23.9,0.3 L23.9,12.4 L27.1,12.4 L27.1,12.4 Z" id="Shape"></path>
                        <path d="M41,12.4 L41,0.3 L37.9,0.3 L37.9,12.4 L41,12.4 L41,12.4 Z" id="Shape"></path>
                        <path d="M33.1,9.7 L36.4,9.7 L36.4,12.4 L30,12.4 L30,0.3 L33.1,0.3 L33.1,9.7 L33.1,9.7 Z" id="Shape"></path>
                        <path d="M8.5,1.6 C7.7,0.8 6.7,0.3 4.9,0.3 C3.8,0.3 3.6,0.3 0.1,0.4 L0.1,3 L0.1,12.4 L3.2,12.4 L3.2,9.8 L4.8,9.8 C9,9.6 9.6,6.1 9.7,5.1 C9.8,3.5 9.3,2.3 8.5,1.6 L8.5,1.6 L8.5,1.6 Z M6.4,5.1 C6.3,6.7 5,7.2 3.3,7.1 L3.3,7.5 L3.3,3 C4.9,2.7 6.5,3.3 6.4,5.1 L6.4,5.1 L6.4,5.1 Z" id="Shape"></path>
                    </g>
                    <g id="Group" transform="translate(303.000000, 37.000000)">
                        <path d="M0.7,10.2 C1.3,10.1 1.7,10 1.9,9.8 C2.1,9.6 2.2,9.1 2.2,8.3 L2.2,2 C2.2,1.4 2.1,1.1 1.9,0.9 C1.7,0.7 1.3,0.6 0.7,0.6 L0.7,0.3 L3.7,0.3 L7.2,7.9 L10.6,0.3 L13.7,0.3 L13.7,0.6 C13.1,0.6 12.8,0.7 12.6,0.9 C12.4,1.1 12.4,1.4 12.4,2 L12.4,8.8 C12.4,9.4 12.5,9.7 12.6,9.9 C12.8,10.1 13.1,10.2 13.7,10.2 L13.7,10.5 L9.4,10.5 L9.4,10.2 C10,10.2 10.4,10 10.6,9.9 C10.8,9.7 10.8,9.3 10.8,8.7 L10.8,1.8 L6.9,10.5 L6.7,10.5 L2.8,2.1 L2.8,8.2 C2.8,9 2.9,9.6 3.2,9.8 C3.4,10 3.7,10.1 4.3,10.1 L4.3,10.4 L0.7,10.4 L0.7,10.2 L0.7,10.2 Z" id="Shape"></path>
                        <path d="M15.9,7.2 C16.4,6.9 17.3,6.5 18.7,6 L18.7,5.4 C18.7,4.9 18.6,4.5 18.5,4.3 C18.3,4 18,3.8 17.4,3.8 C17.1,3.8 16.9,3.9 16.7,4 C16.5,4.1 16.4,4.3 16.4,4.6 L16.4,4.9 L16.4,5.2 C16.4,5.5 16.3,5.7 16.1,5.8 C16,5.9 15.9,5.9 15.7,5.9 C15.5,5.9 15.3,5.8 15.2,5.7 C15.1,5.6 15,5.4 15,5.2 C15,4.9 15.2,4.5 15.6,4.1 C16,3.7 16.7,3.5 17.5,3.5 C18.5,3.5 19.1,3.8 19.5,4.4 C19.7,4.7 19.8,5.2 19.8,5.9 L19.8,8.9 C19.8,9.2 19.8,9.4 19.9,9.5 C20,9.7 20.1,9.8 20.3,9.8 C20.4,9.8 20.5,9.8 20.6,9.7 C20.7,9.7 20.8,9.6 21,9.4 L21,9.8 C20.8,10 20.7,10.2 20.5,10.3 C20.2,10.5 19.9,10.6 19.6,10.6 C19.3,10.6 19,10.5 18.9,10.3 C18.7,10.1 18.7,9.8 18.6,9.5 C18.2,9.8 17.9,10.1 17.6,10.2 C17.1,10.5 16.7,10.6 16.3,10.6 C15.9,10.6 15.5,10.4 15.2,10.1 C14.9,9.8 14.7,9.4 14.7,8.9 C14.8,8.3 15.1,7.7 15.9,7.2 L15.9,7.2 Z M18.6,6.4 C18,6.6 17.6,6.8 17.2,7 C16.5,7.4 16.1,7.9 16.1,8.5 C16.1,9 16.2,9.3 16.5,9.5 C16.7,9.6 16.9,9.7 17.2,9.7 C17.5,9.7 17.8,9.6 18.1,9.4 C18.4,9.2 18.6,9 18.6,8.7 L18.6,6.4 L18.6,6.4 Z" id="Shape"></path>
                        <path d="M24.9,3.6 L24.9,4.1 L23.4,4.1 L23.4,8.4 C23.4,8.8 23.4,9.1 23.5,9.3 C23.6,9.6 23.9,9.8 24.2,9.8 C24.4,9.8 24.5,9.8 24.7,9.7 C24.8,9.6 25,9.5 25.2,9.3 L25.4,9.5 L25.2,9.7 C24.9,10 24.7,10.3 24.4,10.4 C24.1,10.5 23.8,10.6 23.6,10.6 C23,10.6 22.6,10.3 22.4,9.8 C22.3,9.5 22.2,9.1 22.2,8.6 L22.2,4.1 L21.4,4.1 C21.4,4.1 21.4,4.1 21.3,4.1 C21.3,4.1 21.3,4.1 21.3,4 L21.3,3.9 C21.3,3.9 21.4,3.8 21.5,3.7 C21.8,3.4 22.1,3.2 22.2,3 C22.4,2.8 22.7,2.4 23.3,1.6 L23.4,1.6 C23.4,1.6 23.4,1.6 23.4,1.7 L23.4,3.5 L24.9,3.5 L24.9,3.6 Z" id="Shape"></path>
                        <path d="M25.4,10.3 C25.8,10.2 26.1,10.1 26.2,10 C26.3,9.9 26.4,9.5 26.4,9 L26.4,1.8 C26.4,1.5 26.4,1.3 26.3,1.2 C26.2,1.1 26.1,1 25.8,1 L25.6,1 L25.4,1 L25.4,0.7 C25.6,0.6 25.9,0.6 26.2,0.5 C26.5,0.4 26.7,0.3 26.9,0.3 L27.6,0.1 L27.6,0.2 L27.6,4.8 C27.9,4.4 28.2,4.2 28.4,4 C28.8,3.7 29.3,3.5 29.8,3.5 C30.6,3.5 31.2,3.8 31.5,4.5 C31.7,4.9 31.7,5.3 31.7,5.9 L31.7,9 C31.7,9.5 31.8,9.9 31.9,10 C32,10.1 32.3,10.3 32.7,10.3 L32.7,10.5 L29.5,10.5 L29.5,10.3 C29.9,10.2 30.2,10.1 30.3,10 C30.4,9.9 30.5,9.5 30.5,9 L30.5,6 C30.5,5.5 30.4,5.1 30.3,4.8 C30.1,4.5 29.8,4.3 29.4,4.3 C29,4.3 28.6,4.4 28.3,4.7 C27.9,5 27.8,5.2 27.8,5.2 L27.8,9 C27.8,9.6 27.9,9.9 28,10 C28.1,10.1 28.4,10.2 28.8,10.3 L28.8,10.5 L25.5,10.5 L25.5,10.3 L25.4,10.3 Z" id="Shape"></path>
                        <path d="M36.8,0.4 L36.8,0.7 C36.5,0.7 36.3,0.7 36.1,0.8 C35.9,0.9 35.8,1 35.8,1.3 L35.8,1.6 C35.8,1.7 35.9,1.8 35.9,2 L38.1,7.8 L39.7,3.5 L39,1.6 C38.9,1.3 38.7,1 38.4,0.9 C38.2,0.8 38,0.8 37.7,0.8 L37.7,0.5 L41.8,0.5 L41.8,0.8 C41.4,0.8 41.1,0.8 41,0.9 C40.8,1 40.7,1.2 40.7,1.4 L40.7,1.6 C40.7,1.7 40.8,1.8 40.9,2 L43.1,7.8 L45,2.6 C45.1,2.3 45.2,2 45.2,1.8 L45.2,1.5 C45.2,1.2 45.1,1 44.8,0.9 C44.6,0.8 44.4,0.8 44.1,0.8 L44.1,0.5 L47.1,0.5 L47.1,0.8 C46.8,0.8 46.6,0.9 46.5,1 C46.2,1.1 46,1.4 45.9,1.8 L44.3,6.4 L43.7,8.2 L42.7,11 L42.5,11 L41.8,9.2 L40,4.5 L37.6,11 L37.4,11 L36.3,7.8 L35,4.2 C34.5,2.7 34.1,1.8 33.9,1.5 C33.7,1.2 33.4,1 32.9,1 L32.9,0.7 L36.8,0.7 L36.8,0.4 Z" id="Shape"></path>
                        <path d="M47.6,4.5 C48.2,3.8 49,3.5 50,3.5 C51,3.5 51.8,3.8 52.5,4.5 C53.1,5.1 53.5,6 53.5,7.1 C53.5,8.1 53.2,9 52.6,9.7 C52,10.4 51.2,10.8 50.2,10.8 C49.2,10.8 48.4,10.4 47.8,9.7 C47.1,9 46.8,8.1 46.8,7 C46.6,6 46.9,5.2 47.6,4.5 L47.6,4.5 Z M48.8,4.3 C48.3,4.8 48,5.5 48,6.7 C48,7.6 48.2,8.4 48.6,9.2 C49,10 49.6,10.4 50.3,10.4 C50.9,10.4 51.3,10.1 51.6,9.6 C51.9,9.1 52.1,8.4 52.1,7.6 C52.1,6.7 51.9,5.9 51.5,5.2 C51.1,4.4 50.6,4.1 49.8,4.1 C49.4,3.9 49.1,4.1 48.8,4.3 L48.8,4.3 Z" id="Shape"></path>
                        <path d="M54,10.3 C54.5,10.3 54.8,10.2 54.9,10.1 C55,10 55.1,9.7 55.1,9.3 L55.1,5.9 C55.1,5.4 55.1,5.1 55,4.8 C54.9,4.6 54.7,4.5 54.5,4.5 L54.3,4.5 L54,4.5 L54,4.3 C54.3,4.2 54.6,4.1 54.9,4 C55.2,3.9 55.4,3.8 55.5,3.8 C55.7,3.7 56,3.6 56.3,3.5 L56.4,3.5 L56.4,3.7 L56.4,4.9 C56.7,4.5 57,4.1 57.3,3.9 C57.6,3.7 57.9,3.5 58.2,3.5 C58.5,3.5 58.7,3.6 58.8,3.7 C59,3.9 59,4 59,4.3 C59,4.5 58.9,4.7 58.8,4.8 C58.7,4.9 58.5,5 58.3,5 C58.1,5 57.9,4.9 57.7,4.7 C57.5,4.5 57.4,4.4 57.2,4.4 C57,4.4 56.8,4.5 56.6,4.8 C56.3,5.1 56.2,5.4 56.2,5.7 L56.2,9.1 C56.2,9.5 56.3,9.8 56.5,10 C56.7,10.2 57,10.2 57.5,10.2 L57.5,10.4 L54,10.4 L54,10.3 L54,10.3 Z" id="Shape"></path>
                        <path d="M59,10.3 C59.5,10.3 59.8,10.2 59.9,10.1 C60.1,10 60.1,9.7 60.1,9.3 L60.1,1.8 C60.1,1.4 60,1.2 59.9,1.1 C59.8,1 59.6,1 59.4,1 L59.2,1 L59,1 L59,0.8 L59.7,0.6 C60.2,0.5 60.7,0.3 61,0.2 C61.2,0.1 61.3,0.1 61.4,0.1 L61.5,0.1 C61.5,0.1 61.5,0.1 61.5,0.2 L61.5,6.5 L63.6,4.7 C63.8,4.6 63.9,4.5 63.9,4.4 C64,4.3 64,4.2 64,4.2 C64,4.1 63.9,4 63.8,4 C63.7,4 63.5,3.9 63.2,3.9 L63.2,3.7 L66.3,3.7 L66.3,3.9 C65.7,3.9 65.3,4 65,4.2 C64.7,4.4 64,4.9 63,5.8 L62.6,6.2 L64,8 C64.7,8.9 65.2,9.5 65.6,9.8 C66,10.1 66.3,10.3 66.8,10.3 L66.8,10.5 L63.5,10.5 L63.5,10.3 L63.8,10.3 C63.9,10.3 64,10.3 64,10.2 C64.1,10.2 64.1,10.1 64.1,10 L64.1,9.8 C64.1,9.8 64,9.7 64,9.6 L61.7,6.5 L61.7,9.3 C61.7,9.6 61.8,9.9 62.1,10 C62.3,10.1 62.5,10.1 62.9,10.1 L62.9,10.3 L59,10.3 L59,10.3 L59,10.3 Z" id="Shape"></path>
                        <path d="M67.5,8.2 L67.7,8.2 C67.8,8.8 68,9.2 68.2,9.5 C68.5,10.1 69.1,10.3 69.7,10.3 C70.1,10.3 70.4,10.2 70.6,10 C70.8,9.8 70.9,9.5 70.9,9.2 C70.9,9 70.8,8.8 70.7,8.6 C70.6,8.4 70.4,8.2 70,8 L69.2,7.5 C68.6,7.2 68.1,6.8 67.8,6.5 C67.5,6.2 67.4,5.8 67.4,5.3 C67.4,4.7 67.6,4.3 68,3.9 C68.4,3.5 68.9,3.4 69.5,3.4 C69.8,3.4 70.1,3.5 70.4,3.6 C70.7,3.7 70.9,3.8 70.9,3.8 L71.1,3.8 L71.2,3.7 L71.4,3.7 L71.5,5.8 L71.3,5.8 C71.2,5.3 71.1,4.9 70.9,4.7 C70.6,4.2 70.1,4 69.6,4 C69.3,4 69,4.1 68.8,4.3 C68.6,4.5 68.5,4.8 68.5,5.1 C68.5,5.6 68.8,6 69.5,6.3 L70.5,6.8 C71.6,7.4 72.1,8.1 72.1,8.8 C72.1,9.4 71.9,9.9 71.4,10.2 C71,10.6 70.4,10.8 69.7,10.8 C69.4,10.8 69.1,10.8 68.7,10.6 C68.3,10.5 68.1,10.5 68,10.5 C67.9,10.5 67.9,10.5 67.8,10.6 C67.8,10.6 67.7,10.7 67.7,10.8 L67.5,10.8 L67.5,8.2 L67.5,8.2 Z" id="Shape"></path>
                    </g>
                </g>
            </g>
        </g>
    </g>
</svg>